<svg viewBox="0 0 2255 1597" width="2255" height="1597" xmlns:xlink="http://www.w3.org/1999/xlink" xmlns="http://www.w3.org/2000/svg" xmlns:ev="http://www.w3.org/2001/xml-events"><style type="text/css"><![CDATA[
.st1 {fill:#000000;font-family:Arial;font-size:14pt;font-weight:bold}
.st13 {fill:#000000;font-family:Arial;font-size:14pt}
.st2 {fill:#000000;font-family:宋体;font-size:10pt}
.st4 {fill:#000000;font-family:宋体;font-size:14pt}
.st3 {fill:#7030a0;font-family:宋体;font-size:10pt}
.st9 {fill:#7030a0;font-family:宋体;font-size:14pt}
.st12 {fill:#7030a0}
.st5 {fill:#c00000;font-family:宋体;font-size:10pt}
.st6 {fill:#ff0000;font-family:宋体;font-size:10pt}
.st7 {fill:#ffffff;font-family:宋体;font-size:10pt;font-weight:bold}
.st11 {fill:#ffffff;font-family:宋体;font-size:10pt}
.st10 {fill:#ffffff;font-family:宋体;font-size:14pt}
.st8 {font-weight:bold}
]]></style><defs/><g transform="translate(5,5)" id="page1"><rect width="2245" height="1587" stroke="#808080" x="0" y="0" fill="#ffffff"/><g transform="translate(1096.31,228.25)" id="shape1"><path stroke-width="2.33333" stroke="#000000" d="M0,54.2C0,24.2,24.2,0,54.2,0C84.1,0,108.3,24.2,108.3,54.2C108.3,84.1,84.1,108.3,54.2,108.3C24.2,108.3,0,84.1,0,54.2z" fill="none"/><text class="st1"><tspan x="24.2" y="61.7">叶文洁</tspan></text></g><g transform="translate(1220.8,125.95)" id="shape2"><path stroke-width="2.33333" stroke="#000000" d="M72.1,40.4C78.4,40.4,83.5,35.3,83.5,29.1L83.5,11.3C83.5,5.1,78.4,0,72.1,0L11.3,0C5.1,0,0,5.1,0,11.3L0,29.1C0,35.3,5.1,40.4,11.3,40.4L72.1,40.4z" fill="none"/><text class="st2"><tspan x="22.2" y="24.7">红卫兵</tspan></text></g><g transform="translate(1082.25,127.01)" id="shape3"><path stroke-width="2.33333" d="M72.1,40.4C78.4,40.4,83.5,35.3,83.5,29.1L83.5,11.3C83.5,5.1,78.4,0,72.1,0L11.3,0C5.1,0,0,5.1,0,11.3L0,29.1C0,35.3,5.1,40.4,11.3,40.4L72.1,40.4z" stroke="#000000" fill="#c2c2c2"/><text class="st2"><tspan x="22.2" y="24.7">叶哲泰</tspan></text></g><g transform="translate(975.84,125.95)" id="shape4"><path stroke-width="2.33333" d="M62.9,40.4C69.2,40.4,74.3,35.3,74.3,29.1L74.3,11.3C74.3,5.1,69.2,0,62.9,0L11.3,0C5.1,0,0,5.1,0,11.3L0,29.1C0,35.3,5.1,40.4,11.3,40.4L62.9,40.4z" stroke="#000000" fill="#c2c2c2"/><text class="st2"><tspan x="18.1" y="24.7">杨卫宁</tspan></text></g><g transform="translate(819.11,125.95)" id="shape5"><path stroke-width="2.33333" d="M74.1,40.4C80.4,40.4,85.5,35.3,85.5,29.1L85.5,11.3C85.5,5.1,80.4,0,74.1,0L11.3,0C5.1,0,0,5.1,0,11.3L0,29.1C0,35.3,5.1,40.4,11.3,40.4L74.1,40.4z" stroke="#000000" fill="#c2c2c2"/><text class="st2"><tspan x="23.2" y="24.7">雷志成</tspan></text></g><g transform="translate(824.11,220.09)" id="shape6"><path stroke-width="2.33333" stroke="#000000" d="M63.7,40.4C69.9,40.4,75,35.3,75,29.1L75,11.3C75,5.1,69.9,0,63.7,0L11.3,0C5.1,0,0,5.1,0,11.3L0,29.1C0,35.3,5.1,40.4,11.3,40.4L63.7,40.4z" fill="none"/><text class="st3"><tspan x="25" y="24.7">红岸</tspan></text></g><g transform="translate(814.11,296.16)" id="shape7"><path stroke-width="2.33333" stroke="#000000" d="M79.1,40.4C85.4,40.4,90.5,35.3,90.5,29.1L90.5,11.3C90.5,5.1,85.4,0,79.1,0L11.3,0C5.1,0,0,5.1,0,11.3L0,29.1C0,35.3,5.1,40.4,11.3,40.4L79.1,40.4z" fill="none"/><text class="st2"><tspan x="32.2" y="24.7">邵琳</tspan></text></g><g transform="translate(814.11,351.88)" id="shape8"><path stroke-width="2.33333" stroke="#000000" d="M79.1,40.4C85.4,40.4,90.5,35.3,90.5,29.1L90.5,11.3C90.5,5.1,85.4,0,79.1,0L11.3,0C5.1,0,0,5.1,0,11.3L0,29.1C0,35.3,5.1,40.4,11.3,40.4L79.1,40.4z" fill="none"/><text class="st2"><tspan x="26.2" y="24.7">叶文雪</tspan></text></g><g transform="translate(931.95,363.29)" id="shape9"><path stroke-width="2.33333" stroke="#000000" d="M79.6,40.4C85.9,40.4,90.9,35.3,90.9,29.1L90.9,11.3C90.9,5.1,85.9,0,79.6,0L11.3,0C5.1,0,0,5.1,0,11.3L0,29.1C0,35.3,5.1,40.4,11.3,40.4L79.6,40.4z" fill="none"/><text class="st2"><tspan x="26.5" y="24.7">白沐霖</tspan></text></g><g transform="matrix(-1,0.02,-0.02,-1,1220.8,146.2)" id="shape10"><path stroke-width="2.33333" stroke="#236ea1" d="M0,0L48.4,0" fill="none"/><path stroke-width="1" stroke="#236ea1" d="M55.1,0L47.1,-4.6C47.9,-3.2,48.4,-1.7,48.4,0C48.4,1.7,47.9,3.2,47.1,4.6L55.1,0" stroke-linecap="round" fill="#236ea1"/><rect width="26.6" height="15" x="14.7" y="-7.5" fill="#fefefe" transform="matrix(-1,-0.02,0.02,-1,55.1,0.5)"/><text class="st3" transform="matrix(-1,-0.02,0.02,-1,55.1,0.5)"><tspan x="14.5" y="4.5">批斗</tspan></text></g><path stroke-width="2.33333" stroke="#236ea1" d="M0,0L71.3,0" stroke-dasharray="6,4" fill="none" transform="translate(904.58,146.15)" id="shape11"/><g transform="matrix(-0,1,-1,-0,861.8,166.4)" id="shape12"><path stroke-width="2.33333" stroke="#236ea1" d="M0,0L47,0" fill="none"/><path stroke-width="1" stroke="#236ea1" d="M53.7,0L45.8,-4.6C46.6,-3.2,47,-1.7,47,0C47,1.7,46.6,3.2,45.8,4.6L53.7,0" stroke-linecap="round" fill="#236ea1"/><rect width="26.6" height="15" x="14" y="-7.5" fill="#fefefe" transform="matrix(-0,-1,1,-0,27,26.9)"/><text class="st3" transform="matrix(-0,-1,1,-0,27,26.9)"><tspan x="13.9" y="4.5">政委</tspan></text></g><g transform="matrix(-0.69,0.73,-0.73,-0.69,1262.5,166.4)" id="shape13"><path stroke-width="2.33333" stroke="#236ea1" d="M0,0L101,0" fill="none"/><path stroke-width="1" stroke="#236ea1" d="M107.7,0L99.8,-4.6C100.6,-3.2,101,-1.7,101,0C101,1.7,100.6,3.2,99.8,4.6L107.7,0" stroke-linecap="round" fill="#236ea1"/><rect width="60.3" height="15" x="24.5" y="-7.5" fill="#fefefe" transform="matrix(-0.69,-0.73,0.73,-0.69,90.9,39.1)"/><text class="st3" transform="matrix(-0.69,-0.73,0.73,-0.69,90.9,39.1)"><tspan x="24.4" y="4.5">无人忏悔1</tspan></text></g><g transform="matrix(0.4,0.92,-0.92,0.4,1124,167.4)" id="shape14"><path stroke-width="2.33333" stroke="#236ea1" d="M0,0L66.3,0" stroke-dasharray="6,4" fill="none"/><rect width="26.6" height="15" x="20.3" y="-7.5" fill="#fefefe" transform="matrix(0.4,-0.92,0.92,0.4,19.9,30.4)"/><text class="st3" transform="matrix(0.4,-0.92,0.92,0.4,19.9,30.4)"><tspan x="20.2" y="4.5">父女</tspan></text></g><g transform="matrix(-0.79,-0.62,0.62,-0.79,1112.6,244.5)" id="shape15"><path stroke-width="2.33333" stroke="#236ea1" d="M0,0L119.9,0" fill="none"/><path stroke-width="1" stroke="#236ea1" d="M126.6,0L118.6,-4.6C119.4,-3.2,119.9,-1.7,119.9,0C119.9,1.7,119.4,3.2,118.6,4.6L126.6,0" stroke-linecap="round" fill="#236ea1"/><rect width="39.9" height="15" x="43.9" y="-7.5" fill="#fefefe" transform="matrix(-0.79,0.62,-0.62,-0.79,113.1,-39.1)"/><text class="st3" transform="matrix(-0.79,0.62,-0.62,-0.79,113.1,-39.1)"><tspan x="43.8" y="4.5">绳与刀</tspan></text></g><g transform="matrix(0.98,-0.17,0.17,0.98,904.6,316.4)" id="shape16"><path stroke-width="2.33333" stroke="#236ea1" d="M0,0L188,0" fill="none"/><path stroke-width="1" stroke="#236ea1" d="M194.7,0L186.8,-4.6C187.5,-3.2,188,-1.7,188,0C188,1.7,187.5,3.2,186.8,4.6L194.7,0" stroke-linecap="round" fill="#236ea1"/><rect width="60.3" height="15" x="68" y="-7.5" fill="#fefefe" transform="matrix(0.98,0.17,-0.17,0.98,1.5,-17)"/><text class="st3" transform="matrix(0.98,0.17,-0.17,0.98,1.5,-17)"><tspan x="67.9" y="4.5">无人忏悔2</tspan></text></g><g transform="matrix(0.92,-0.38,0.38,0.92,904.6,362)" id="shape17"><path stroke-width="2.33333" stroke="#236ea1" d="M0,0L200.9,0" stroke-dasharray="6,4" fill="none"/><path stroke-width="1" stroke="#236ea1" d="M207.6,0L199.6,-4.6C200.4,-3.2,200.9,-1.7,200.9,0C200.9,1.7,200.4,3.2,199.6,4.6L207.6,0" stroke-linecap="round" fill="#236ea1"/><rect width="26.6" height="15" x="90.9" y="-7.5" fill="#fefefe" transform="matrix(0.92,0.38,-0.38,0.92,7.9,-39.8)"/><text class="st3" transform="matrix(0.92,0.38,-0.38,0.92,7.9,-39.8)"><tspan x="90.8" y="4.5">姐妹</tspan></text></g><g transform="matrix(0.86,-0.51,0.51,0.86,1022.9,373.4)" id="shape18"><path stroke-width="2.33333" stroke="#236ea1" d="M0,0L97.5,0" fill="none"/><path stroke-width="1" stroke="#236ea1" d="M104.2,0L96.3,-4.6C97,-3.2,97.5,-1.7,97.5,0C97.5,1.7,97,3.2,96.3,4.6L104.2,0" stroke-linecap="round" fill="#236ea1"/><rect width="26.6" height="15" x="39.2" y="-15" fill="#fefefe" transform="matrix(0.86,0.51,-0.51,0.86,7.3,-26.5)"/><rect width="26.6" height="15" x="39.2" y="0" fill="#fefefe" transform="matrix(0.86,0.51,-0.51,0.86,7.3,-26.5)"/><text class="st3" transform="matrix(0.86,0.51,-0.51,0.86,7.3,-26.5)"><tspan x="39.1" y="-3">反差</tspan><tspan x="39.1" y="12">诬陷</tspan></text></g><g transform="translate(1545.11,248.41)" id="shape19"><path stroke-width="2.33333" d="M0,34C0,15.2,23.7,0,53,0C82.3,0,106,15.2,106,34C106,52.8,82.3,68,53,68C23.7,68,0,52.8,0,34z" stroke="#000000" fill="#c2c2c2"/><text class="st4"><tspan x="38" y="41">ETO</tspan></text></g><g transform="translate(1709.95,228.25)" id="shape20"><path stroke-width="2.33333" d="M0,54.2C0,24.2,24.2,0,54.2,0C84.1,0,108.3,24.2,108.3,54.2C108.3,84.1,84.1,108.3,54.2,108.3C24.2,108.3,0,84.1,0,54.2z" stroke="#000000" fill="#c2c2c2"/><text class="st1"><tspan x="24.2" y="61.7">伊文斯</tspan></text></g><g transform="translate(1854.37,262.2)" id="shape21"><path stroke-width="2.33333" d="M72.1,40.4C78.4,40.4,83.5,35.3,83.5,29.1L83.5,11.3C83.5,5.1,78.4,0,72.1,0L11.3,0C5.1,0,0,5.1,0,11.3L0,29.1C0,35.3,5.1,40.4,11.3,40.4L72.1,40.4z" stroke="#000000" fill="#c2c2c2"/><text class="st2"><tspan x="19.2" y="24.7">红岸2号</tspan></text></g><g transform="translate(1556.37,363.29)" id="shape22"><path stroke-width="2.33333" d="M72.1,40.4C78.4,40.4,83.5,35.3,83.5,29.1L83.5,11.3C83.5,5.1,78.4,0,72.1,0L11.3,0C5.1,0,0,5.1,0,11.3L0,29.1C0,35.3,5.1,40.4,11.3,40.4L72.1,40.4z" stroke="#000000" fill="#c2c2c2"/><text class="st2"><tspan x="29.2" y="24.7">潘寒</tspan></text></g><g transform="translate(1556.37,461.09)" id="shape23"><path stroke-width="2.33333" d="M72.1,40.4C78.4,40.4,83.5,35.3,83.5,29.1L83.5,11.3C83.5,5.1,78.4,0,72.1,0L11.3,0C5.1,0,0,5.1,0,11.3L0,29.1C0,35.3,5.1,40.4,11.3,40.4L72.1,40.4z" stroke="#000000" fill="#c2c2c2"/><text class="st2"><tspan x="22.2" y="24.7">申玉菲</tspan></text></g><g transform="translate(1433.74,461.09)" id="shape24"><path stroke-width="2.33333" stroke="#000000" d="M73.4,40.4C79.7,40.4,84.7,35.3,84.7,29.1L84.7,11.3C84.7,5.1,79.7,0,73.4,0L11.3,0C5.1,0,0,5.1,0,11.3L0,29.1C0,35.3,5.1,40.4,11.3,40.4L73.4,40.4z" fill="none"/><text class="st2"><tspan x="29.4" y="24.7">汪淼</tspan></text></g><g transform="translate(1433.74,379.88)" id="shape25"><path stroke-width="2.33333" stroke="#ffaf00" d="M73.4,40.4C79.7,40.4,84.7,35.3,84.7,29.1L84.7,11.3C84.7,5.1,79.7,0,73.4,0L11.3,0C5.1,0,0,5.1,0,11.3L0,29.1C0,35.3,5.1,40.4,11.3,40.4L73.4,40.4z" fill="none"/><text class="st2"><tspan x="29.4" y="24.7">智子</tspan></text></g><g transform="translate(1301.37,363.29)" id="shape26"><path stroke-width="2.33333" d="M73.4,40.4C79.7,40.4,84.7,35.3,84.7,29.1L84.7,11.3C84.7,5.1,79.7,0,73.4,0L11.3,0C5.1,0,0,5.1,0,11.3L0,29.1C0,35.3,5.1,40.4,11.3,40.4L73.4,40.4z" stroke="#000000" fill="#c2c2c2"/><text class="st2"><tspan x="29.4" y="24.7">杨冬</tspan></text></g><g transform="translate(1301.37,453.29)" id="shape27"><path stroke-width="2.33333" stroke="#000000" d="M73.4,40.4C79.7,40.4,84.7,35.3,84.7,29.1L84.7,11.3C84.7,5.1,79.7,0,73.4,0L11.3,0C5.1,0,0,5.1,0,11.3L0,29.1C0,35.3,5.1,40.4,11.3,40.4L73.4,40.4z" fill="none"/><text class="st3"><tspan x="23.4" y="24.7">沙瑞山</tspan></text></g><g transform="matrix(0.86,0.5,-0.5,0.86,1204.6,282.4)" id="shape28"><path stroke-width="2.33333" stroke="#236ea1" d="M0,0L154.2,0" fill="none"/><path stroke-width="1" stroke="#236ea1" d="M160.9,0L153,-4.6C153.8,-3.2,154.2,-1.7,154.2,0C154.2,1.7,153.8,3.2,153,4.6L160.9,0" stroke-linecap="round" fill="#236ea1"/><rect width="26.6" height="15" x="67.6" y="-7.5" fill="#fefefe" transform="matrix(0.86,-0.5,0.5,0.86,10.9,40.4)"/><text class="st3" transform="matrix(0.86,-0.5,0.5,0.86,10.9,40.4)"><tspan x="67.5" y="4.5">母女</tspan></text></g><g transform="matrix(0.76,0.65,-0.65,0.76,1188.4,320.3)" id="shape29"><path stroke-width="2.33333" stroke="#236ea1" d="M0,0L197.8,0" fill="none"/><path stroke-width="1" stroke="#236ea1" d="M204.5,0L196.6,-4.6C197.3,-3.2,197.8,-1.7,197.8,0C197.8,1.7,197.3,3.2,196.6,4.6L204.5,0" stroke-linecap="round" fill="#236ea1"/><rect width="26.6" height="15" x="89.4" y="-7.5" fill="#fefefe" transform="matrix(0.76,-0.65,0.65,0.76,24.6,66.5)"/><text class="st3" transform="matrix(0.76,-0.65,0.65,0.76,24.6,66.5)"><tspan x="89.2" y="4.5">师生</tspan></text></g><g transform="matrix(0.77,0.64,-0.64,0.77,1204.6,282.4)" id="shape30"><path stroke-width="2.33333" stroke="#236ea1" d="M0,0L290.2,0" fill="none"/><path stroke-width="1" stroke="#236ea1" d="M296.9,0L288.9,-4.6C289.7,-3.2,290.2,-1.7,290.2,0C290.2,1.7,289.7,3.2,288.9,4.6L296.9,0" stroke-linecap="round" fill="#236ea1"/></g><g transform="matrix(0,1,-1,0,1476.1,420.3)" id="shape31"><path stroke-width="2.33333" stroke="#236ea1" d="M0,0L34.1,0" fill="none"/><path stroke-width="1" stroke="#236ea1" d="M40.8,0L32.9,-4.6C33.6,-3.2,34.1,-1.7,34.1,0C34.1,1.7,33.6,3.2,32.9,4.6L40.8,0" stroke-linecap="round" fill="#236ea1"/><rect width="26.6" height="15" x="7.5" y="-7.5" fill="#fefefe" transform="matrix(0,-1,1,0,20.4,20.4)"/><text class="st3" transform="matrix(0,-1,1,0,20.4,20.4)"><tspan x="7.4" y="4.5">干扰</tspan></text></g><g transform="translate(1518.47,481.29)" id="shape32"><path stroke-width="2.33333" stroke="#236ea1" d="M0,0L31.2,0" fill="none"/><path stroke-width="1" stroke="#236ea1" d="M37.9,0L30,-4.6C30.7,-3.2,31.2,-1.7,31.2,0C31.2,1.7,30.7,3.2,30,4.6L37.9,0" stroke-linecap="round" fill="#236ea1"/></g><g transform="matrix(0.66,-0.75,0.75,0.66,1518.5,471.2)" id="shape33"><path stroke-width="2.33333" stroke="#236ea1" d="M0,0L82.8,0" fill="none"/><path stroke-width="1" stroke="#236ea1" d="M89.5,0L81.5,-4.6C82.3,-3.2,82.8,-1.7,82.8,0C82.8,1.7,82.3,3.2,81.5,4.6L89.5,0" stroke-linecap="round" fill="#236ea1"/><rect width="26.6" height="15" x="31.9" y="-7.5" fill="#fefefe" transform="matrix(0.66,0.75,-0.75,0.66,15.4,-33.7)"/><text class="st3" transform="matrix(0.66,0.75,-0.75,0.66,15.4,-33.7)"><tspan x="31.7" y="4.5">卧底</tspan></text></g><g transform="matrix(0.97,0.25,-0.25,0.97,1204.6,282.4)" id="shape34"><path stroke-width="2.33333" stroke="#236ea1" d="M0,0L356.6,0" fill="none"/><path stroke-width="1" stroke="#236ea1" d="M363.3,0L355.4,-4.6C356.2,-3.2,356.6,-1.7,356.6,0C356.6,1.7,356.2,3.2,355.4,4.6L363.3,0" stroke-linecap="round" fill="#236ea1"/><rect width="94" height="15" x="135.8" y="-7.5" fill="#fefefe" transform="matrix(0.97,-0.25,0.25,0.97,5.8,45.5)"/><text class="st3" transform="matrix(0.97,-0.25,0.25,0.97,5.8,45.5)"><tspan x="135.7" y="4.5">美女护卫  击杀</tspan></text></g><g transform="translate(1204.63,282.41)" id="shape35"><path stroke-width="2.33333" stroke="#236ea1" d="M0,0L333.8,0" fill="none"/><path stroke-width="1" stroke="#236ea1" d="M340.5,0L332.5,-4.6C333.3,-3.2,333.8,-1.7,333.8,0C333.8,1.7,333.3,3.2,332.5,4.6L340.5,0" stroke-linecap="round" fill="#236ea1"/><rect width="53.1" height="15" x="144.3" y="-7.5" fill="#fefefe"/><text class="st3"><tspan x="144.2" y="4.5">精神领袖</tspan></text></g><g transform="matrix(0,1,-1,0,1598.1,316.4)" id="shape36"><path stroke-width="2.33333" stroke="#236ea1" d="M0,0L40.2,0" fill="none"/><path stroke-width="1" stroke="#236ea1" d="M46.9,0L38.9,-4.6C39.7,-3.2,40.2,-1.7,40.2,0C40.2,1.7,39.7,3.2,38.9,4.6L46.9,0" stroke-linecap="round" fill="#236ea1"/><rect width="39.9" height="15" x="4.1" y="-7.5" fill="#fefefe" transform="matrix(0,-1,1,0,23.4,23.4)"/><text class="st3" transform="matrix(0,-1,1,0,23.4,23.4)"><tspan x="3.9" y="4.5">降临派</tspan></text></g><g transform="matrix(0,1,-1,0,1598.1,403.7)" id="shape37"><path stroke-width="2.33333" stroke="#236ea1" d="M0,0L50.7,0" fill="none"/><path stroke-width="1" stroke="#236ea1" d="M57.4,0L49.4,-4.6C50.2,-3.2,50.7,-1.7,50.7,0C50.7,1.7,50.2,3.2,49.4,4.6L57.4,0" stroke-linecap="round" fill="#236ea1"/><rect width="26.6" height="15" x="15.8" y="-7.5" fill="#fefefe" transform="matrix(0,-1,1,0,28.7,28.7)"/><text class="st3" transform="matrix(0,-1,1,0,28.7,28.7)"><tspan x="15.7" y="4.5">刺杀</tspan></text></g><g transform="translate(1818.27,282.41)" id="shape38"><path stroke-width="2.33333" stroke="#236ea1" d="M0,0L29.4,0" fill="none"/><path stroke-width="1" stroke="#236ea1" d="M36.1,0L28.2,-4.6C28.9,-3.2,29.4,-1.7,29.4,0C29.4,1.7,28.9,3.2,28.2,4.6L36.1,0" stroke-linecap="round" fill="#236ea1"/></g><g transform="matrix(-1,0,0,-1,1709.9,282.4)" id="shape39"><path stroke-width="2.33333" stroke="#236ea1" d="M0,0L52.1,0" fill="none"/><path stroke-width="1" stroke="#236ea1" d="M58.8,0L50.9,-4.6C51.7,-3.2,52.1,-1.7,52.1,0C52.1,1.7,51.7,3.2,50.9,4.6L58.8,0" stroke-linecap="round" fill="#236ea1"/><rect width="26.6" height="15" x="16.5" y="-7.5" fill="#fefefe" transform="matrix(-1,-0,0,-1,58.8,0)"/><text class="st3" transform="matrix(-1,-0,0,-1,58.8,0)"><tspan x="16.4" y="4.5">创建</tspan></text></g><g transform="translate(1688.11,461.09)" id="shape40"><path stroke-width="2.33333" stroke="#000000" d="M73.4,40.4C79.7,40.4,84.7,35.3,84.7,29.1L84.7,11.3C84.7,5.1,79.7,0,73.4,0L11.3,0C5.1,0,0,5.1,0,11.3L0,29.1C0,35.3,5.1,40.4,11.3,40.4L73.4,40.4z" fill="none"/><text class="st2"><tspan x="29.4" y="24.7">魏成</tspan></text></g><g transform="translate(1639.85,481.29)" id="shape41"><path stroke-width="2.33333" stroke="#236ea1" d="M0,0L41.6,0" fill="none"/><path stroke-width="1" stroke="#236ea1" d="M48.3,0L40.3,-4.6C41.1,-3.2,41.6,-1.7,41.6,0C41.6,1.7,41.1,3.2,40.3,4.6L48.3,0" stroke-linecap="round" fill="#236ea1"/></g><g transform="matrix(0.87,0.5,-0.5,0.87,1632,308.2)" id="shape42"><path stroke-width="2.33333" stroke="#236ea1" d="M0,0L106.5,0" fill="none"/><path stroke-width="1" stroke="#236ea1" d="M113.2,0L105.2,-4.6C106,-3.2,106.5,-1.7,106.5,0C106.5,1.7,106,3.2,105.2,4.6L113.2,0" stroke-linecap="round" fill="#236ea1"/></g><g transform="translate(1096.31,579.13)" id="shape43"><path stroke-width="2.33333" stroke="#000000" d="M0,54.2C0,24.2,24.2,0,54.2,0C84.1,0,108.3,24.2,108.3,54.2C108.3,84.1,84.1,108.3,54.2,108.3C24.2,108.3,0,84.1,0,54.2z" stroke-dasharray="6,4" fill="none"/><text class="st1"><tspan x="34.2" y="61.7">逻辑</tspan></text></g><g transform="translate(1421.95,579.13)" id="shape44"><path stroke-width="2.33333" stroke="#000000" d="M0,54.2C0,24.2,24.2,0,54.2,0C84.1,0,108.3,24.2,108.3,54.2C108.3,84.1,84.1,108.3,54.2,108.3C24.2,108.3,0,84.1,0,54.2z" fill="none"/><text class="st1"><tspan x="34.2" y="61.7">史强</tspan></text></g><g transform="translate(1731.79,579.13)" id="shape45"><path stroke-width="2.33333" d="M0,54.2C0,24.2,24.2,0,54.2,0C84.1,0,108.3,24.2,108.3,54.2C108.3,84.1,84.1,108.3,54.2,108.3C24.2,108.3,0,84.1,0,54.2z" stroke="#000000" fill="#c2c2c2"/><text class="st1"><tspan x="24.2" y="61.7">章北海</tspan></text></g><g transform="translate(1206.11,443.29)" id="shape46"><path stroke-width="2.33333" stroke="#000000" d="M64.7,76C70.9,76,76,70.9,76,64.7L76,11.3C76,5.1,70.9,0,64.7,0L11.3,0C5.1,0,0,5.1,0,11.3L0,64.7C0,70.9,5.1,76,11.3,76L64.7,76z" fill="none"/><text class="st2"><tspan x="12" y="35">宇宙背景</tspan><tspan x="25" y="50">辐射</tspan></text></g><g transform="matrix(-1,0,0,-1,1433.7,481.3)" id="shape47"><path stroke-width="2.33333" stroke="#236ea1" d="M0,0L144.9,0" fill="none"/><path stroke-width="1" stroke="#236ea1" d="M151.6,0L143.7,-4.6C144.5,-3.2,144.9,-1.7,144.9,0C144.9,1.7,144.5,3.2,143.7,4.6L151.6,0" stroke-linecap="round" fill="#236ea1"/></g><g transform="matrix(0,1,-1,0,1150.5,336.6)" id="shape48"><path stroke-width="5.33333" stroke="#ee7c31" d="M0,0L232.4,0" fill="none"/><path stroke-width="1" stroke="#ee7c31" d="M242.6,0L230.6,-6.9C231.7,-4.9,232.4,-2.5,232.4,0C232.4,2.5,231.7,4.9,230.6,6.9L242.6,0" stroke-linecap="round" fill="#ee7c31"/><rect width="26.6" height="15" x="108.4" y="-22.5" fill="#fefefe" transform="matrix(0,-1,1,0,121.3,121.3)"/><rect width="26.6" height="15" x="108.4" y="-7.5" fill="#fefefe" transform="matrix(0,-1,1,0,121.3,121.3)"/><rect width="26.6" height="15" x="108.4" y="7.5" fill="#fefefe" transform="matrix(0,-1,1,0,121.3,121.3)"/><text class="st3" transform="matrix(0,-1,1,0,121.3,121.3)"><tspan x="108.3" y="-10.5">宇宙</tspan><tspan x="108.3" y="4.5">文明</tspan><tspan x="108.3" y="19.5">公理</tspan></text></g><g transform="matrix(-1,0,0,-1,1421.9,633.3)" id="shape49"><path stroke-width="2.33333" stroke="#ee7c31" d="M0,0L210.6,0" fill="none"/><path stroke-width="1" stroke="#ee7c31" d="M217.3,0L209.4,-4.6C210.2,-3.2,210.6,-1.7,210.6,0C210.6,1.7,210.2,3.2,209.4,4.6L217.3,0" stroke-linecap="round" fill="#ee7c31"/><rect width="93" height="15" x="63.3" y="-7.5" fill="#fefefe" transform="matrix(-1,-0,0,-1,217.3,0)"/><text class="st3" transform="matrix(-1,-0,0,-1,217.3,0)"><tspan x="63.2" y="4.5">纯洁的工作关系</tspan></text></g><g transform="matrix(0,-1,1,0,1476.1,579.1)" id="shape50"><path stroke-width="2.33333" stroke="#236ea1" d="M0,0L70.9,0" fill="none"/><path stroke-width="1" stroke="#236ea1" d="M77.6,0L69.7,-4.6C70.5,-3.2,70.9,-1.7,70.9,0C70.9,1.7,70.5,3.2,69.7,4.6L77.6,0" stroke-linecap="round" fill="#236ea1"/><rect width="26.6" height="15" x="25.9" y="-7.5" fill="#fefefe" transform="matrix(0,1,-1,0,38.8,-38.8)"/><text class="st3" transform="matrix(0,1,-1,0,38.8,-38.8)"><tspan x="25.8" y="4.5">拯救</tspan></text></g><g transform="matrix(0.88,0.47,-0.47,0.88,1497.3,501.5)" id="shape51"><path stroke-width="2.33333" stroke="#236ea1" d="M0,0L83.4,0" fill="none"/><path stroke-width="1" stroke="#236ea1" d="M90.1,0L82.2,-4.6C83,-3.2,83.4,-1.7,83.4,0C83.4,1.7,83,3.2,82.2,4.6L90.1,0" stroke-linecap="round" fill="#236ea1"/><rect width="26.6" height="15" x="32.2" y="-7.5" fill="#fefefe" transform="matrix(0.88,-0.47,0.47,0.88,5.3,21.2)"/><text class="st3" transform="matrix(0.88,-0.47,0.47,0.88,5.3,21.2)"><tspan x="32.1" y="4.5">飞刃</tspan></text></g><g transform="matrix(0.96,-0.26,0.26,0.96,1514,595.4)" id="shape52"><path stroke-width="2.33333" stroke="#236ea1" d="M0,0L114.6,0" fill="none"/><path stroke-width="1" stroke="#236ea1" d="M121.3,0L113.4,-4.6C114.2,-3.2,114.6,-1.7,114.6,0C114.6,1.7,114.2,3.2,113.4,4.6L121.3,0" stroke-linecap="round" fill="#236ea1"/><rect width="53.1" height="15" x="34.8" y="-7.5" fill="#fefefe" transform="matrix(0.96,0.26,-0.26,0.96,2.2,-16)"/><text class="st3" transform="matrix(0.96,0.26,-0.26,0.96,2.2,-16)"><tspan x="34.7" y="4.5">提出方案</tspan></text></g><g transform="translate(1282.11,522.88)" id="shape53"><path stroke-width="2.33333" stroke="#000000" d="M73.4,40.4C79.7,40.4,84.7,35.3,84.7,29.1L84.7,11.3C84.7,5.1,79.7,0,73.4,0L11.3,0C5.1,0,0,5.1,0,11.3L0,29.1C0,35.3,5.1,40.4,11.3,40.4L73.4,40.4z" fill="none"/><text class="st2"><tspan x="29.4" y="24.7">白蓉</tspan></text></g><g transform="translate(1281.74,571.29)" id="shape54"><path stroke-width="2.33333" stroke="#000000" d="M73.4,40.4C79.7,40.4,84.7,35.3,84.7,29.1L84.7,11.3C84.7,5.1,79.7,0,73.4,0L11.3,0C5.1,0,0,5.1,0,11.3L0,29.1C0,35.3,5.1,40.4,11.3,40.4L73.4,40.4z" fill="none"/><text class="st2"><tspan x="29.4" y="24.7">庄颜</tspan></text></g><g transform="translate(1282.11,647.04)" id="shape55"><path stroke-width="2.33333" stroke="#000000" d="M73.4,40.4C79.7,40.4,84.7,35.3,84.7,29.1L84.7,11.3C84.7,5.1,79.7,0,73.4,0L11.3,0C5.1,0,0,5.1,0,11.3L0,29.1C0,35.3,5.1,40.4,11.3,40.4L73.4,40.4z" fill="none"/><text class="st2"><tspan x="29.4" y="24.7">张翔</tspan></text></g><g transform="translate(1281.74,700.88)" id="shape56"><path stroke-width="2.33333" stroke="#000000" d="M73.4,40.4C79.7,40.4,84.7,35.3,84.7,29.1L84.7,11.3C84.7,5.1,79.7,0,73.4,0L11.3,0C5.1,0,0,5.1,0,11.3L0,29.1C0,35.3,5.1,40.4,11.3,40.4L73.4,40.4z" fill="none"/><text class="st2"><tspan x="29.4" y="24.7">坎特</tspan></text></g><g transform="matrix(0.87,-0.49,0.49,0.87,1188.4,595.4)" id="shape57"><path stroke-width="2.33333" stroke="#236ea1" d="M0,0L107.3,0" stroke-dasharray="6,4" fill="none"/><rect width="26.6" height="15" x="40.8" y="-7.5" fill="#fefefe" transform="matrix(0.87,0.49,-0.49,0.87,6.8,-26.1)"/><text class="st3" transform="matrix(0.87,0.49,-0.49,0.87,6.8,-26.1)"><tspan x="40.7" y="4.5">恋人</tspan></text></g><g transform="matrix(1,-0.04,0.04,1,1188.4,595.4)" id="shape58"><path stroke-width="2.33333" stroke="#236ea1" d="M0,0L86.7,0" fill="none"/><path stroke-width="1" stroke="#236ea1" d="M93.4,0L85.5,-4.6C86.3,-3.2,86.7,-1.7,86.7,0C86.7,1.7,86.3,3.2,85.5,4.6L93.4,0" stroke-linecap="round" fill="#236ea1"/></g><g transform="matrix(0.88,0.47,-0.47,0.88,1188.4,671.2)" id="shape59"><path stroke-width="2.33333" stroke="#236ea1" d="M0,0L99.1,0" fill="none"/><path stroke-width="1" stroke="#236ea1" d="M105.8,0L97.9,-4.6C98.7,-3.2,99.1,-1.7,99.1,0C99.1,1.7,98.7,3.2,97.9,4.6L105.8,0" stroke-linecap="round" fill="#236ea1"/><rect width="66.4" height="15" x="20.5" y="-7.5" fill="#fefefe" transform="matrix(0.88,-0.47,0.47,0.88,6.2,24.9)"/><text class="st3" transform="matrix(0.88,-0.47,0.47,0.88,6.2,24.9)"><tspan x="20.4" y="4.5">面壁联络人</tspan></text></g><g transform="matrix(1,-0.04,0.04,1,1188.4,671.2)" id="shape60"><path stroke-width="2.33333" stroke="#236ea1" d="M0,0L87.1,0" fill="none"/><path stroke-width="1" stroke="#236ea1" d="M93.8,0L85.9,-4.6C86.7,-3.2,87.1,-1.7,87.1,0C87.1,1.7,86.7,3.2,85.9,4.6L93.8,0" stroke-linecap="round" fill="#236ea1"/></g><g transform="matrix(-0.8,-0.6,0.6,-0.8,1421.9,633.3)" id="shape61"><path stroke-width="2.33333" stroke="#236ea1" d="M0,0L62.7,0" fill="none"/><path stroke-width="1" stroke="#236ea1" d="M69.5,0L61.5,-4.6C62.3,-3.2,62.7,-1.7,62.7,0C62.7,1.7,62.3,3.2,61.5,4.6L69.5,0" stroke-linecap="round" fill="#236ea1"/></g><g transform="matrix(-0.85,0.52,-0.52,-0.85,1421.9,633.3)" id="shape62"><path stroke-width="2.33333" stroke="#236ea1" d="M0,0L58,0" fill="none"/><path stroke-width="1" stroke="#236ea1" d="M64.7,0L56.8,-4.6C57.6,-3.2,58,-1.7,58,0C58,1.7,57.6,3.2,56.8,4.6L64.7,0" stroke-linecap="round" fill="#236ea1"/></g><g transform="translate(1585.63,613.09)" id="shape63"><path stroke-width="2.33333" stroke="#000000" d="M73.4,40.4C79.7,40.4,84.7,35.3,84.7,29.1L84.7,11.3C84.7,5.1,79.7,0,73.4,0L11.3,0C5.1,0,0,5.1,0,11.3L0,29.1C0,35.3,5.1,40.4,11.3,40.4L73.4,40.4z" fill="none"/><text class="st2"><tspan x="23.4" y="24.7">常伟思</tspan></text></g><g transform="translate(1588.66,691.88)" id="shape64"><path stroke-width="2.33333" stroke="#000000" d="M73.4,40.4C79.7,40.4,84.7,35.3,84.7,29.1L84.7,11.3C84.7,5.1,79.7,0,73.4,0L11.3,0C5.1,0,0,5.1,0,11.3L0,29.1C0,35.3,5.1,40.4,11.3,40.4L73.4,40.4z" fill="none"/><text class="st2"><tspan x="29.4" y="24.7">吴岳</tspan></text></g><g transform="translate(1433.74,732.29)" id="shape65"><path stroke-width="2.33333" stroke="#000000" d="M73.4,40.4C79.7,40.4,84.7,35.3,84.7,29.1L84.7,11.3C84.7,5.1,79.7,0,73.4,0L11.3,0C5.1,0,0,5.1,0,11.3L0,29.1C0,35.3,5.1,40.4,11.3,40.4L73.4,40.4z" fill="none"/><text class="st2"><tspan x="23.4" y="24.7">史晓明</tspan></text></g><g transform="matrix(0,1,-1,0,1476.1,687.5)" id="shape66"><path stroke-width="2.33333" stroke="#236ea1" d="M0,0L38.1,0" fill="none"/><path stroke-width="1" stroke="#236ea1" d="M44.8,0L36.9,-4.6C37.7,-3.2,38.1,-1.7,38.1,0C38.1,1.7,37.7,3.2,36.9,4.6L44.8,0" stroke-linecap="round" fill="#236ea1"/></g><g transform="translate(1530.27,633.29)" id="shape67"><path stroke-width="2.33333" stroke="#236ea1" d="M0,0L48.7,0" fill="none"/><path stroke-width="1" stroke="#236ea1" d="M55.4,0L47.4,-4.6C48.2,-3.2,48.7,-1.7,48.7,0C48.7,1.7,48.2,3.2,47.4,4.6L55.4,0" stroke-linecap="round" fill="#236ea1"/></g><g transform="translate(1670.37,633.29)" id="shape68"><path stroke-width="2.33333" stroke="#236ea1" d="M0,0L54.7,0" fill="none"/><path stroke-width="1" stroke="#236ea1" d="M61.4,0L53.5,-4.6C54.3,-3.2,54.7,-1.7,54.7,0C54.7,1.7,54.3,3.2,53.5,4.6L61.4,0" stroke-linecap="round" fill="#236ea1"/></g><path stroke-width="2.33333" stroke="#236ea1" d="M0,0L85.1,0" stroke-dasharray="6,4" fill="none" transform="matrix(-0.88,0.48,-0.48,-0.88,1748,671.2)" id="shape69"/><g transform="matrix(-0.74,0.67,-0.67,-0.74,1785.9,687.5)" id="shape70"><path stroke-width="2.33333" stroke="#236ea1" d="M0,0L132.3,0" fill="none"/><path stroke-width="1" stroke="#236ea1" d="M139.1,0L131.1,-4.6C131.9,-3.2,132.3,-1.7,132.3,0C132.3,1.7,131.9,3.2,131.1,4.6L139.1,0" stroke-linecap="round" fill="#236ea1"/><rect width="26.6" height="15" x="56.6" y="-7.5" fill="#fefefe" transform="matrix(-0.74,-0.67,0.67,-0.74,121.3,46.4)"/><text class="st3" transform="matrix(-0.74,-0.67,0.67,-0.74,121.3,46.4)"><tspan x="56.5" y="4.5">提出</tspan></text></g><g transform="matrix(0.06,-1,1,0.06,1628,613.1)" id="shape71"><path stroke-width="2.33333" stroke="#236ea1" d="M0,0L43.2,0" fill="none"/><path stroke-width="1" stroke="#236ea1" d="M49.9,0L41.9,-4.6C42.7,-3.2,43.2,-1.7,43.2,0C43.2,1.7,42.7,3.2,41.9,4.6L49.9,0" stroke-linecap="round" fill="#236ea1"/></g><g transform="translate(1685.25,543.94)" id="shape72"><path stroke-width="2.33333" stroke="#236ea1" d="M0,0L210.9,0L210.9,-234.6" fill="none"/><path stroke-width="1" stroke="#236ea1" d="M210.9,-241.3L206.3,-233.4C207.6,-234.2,209.2,-234.6,210.9,-234.6C212.5,-234.6,214.1,-234.2,215.4,-233.4L210.9,-241.3" stroke-linecap="round" fill="#236ea1"/><rect width="53.1" height="15" x="183.2" y="-62.1" fill="#ffffff"/><text class="st3"><tspan x="183.1" y="-50.1">获取情报</tspan></text></g><g transform="translate(1936.95,613.09)" id="shape73"><path stroke-width="2.33333" stroke="#000000" d="M73.4,40.4C79.7,40.4,84.7,35.3,84.7,29.1L84.7,11.3C84.7,5.1,79.7,0,73.4,0L11.3,0C5.1,0,0,5.1,0,11.3L0,29.1C0,35.3,5.1,40.4,11.3,40.4L73.4,40.4z" fill="none"/><text class="st2"><tspan x="29.4" y="24.7">丁仪</tspan></text></g><g transform="translate(1840.11,633.29)" id="shape74"><path stroke-width="2.33333" stroke="#236ea1" d="M0,0L90.1,0" fill="none"/><path stroke-width="1" stroke="#236ea1" d="M96.8,0L88.9,-4.6C89.7,-3.2,90.1,-1.7,90.1,0C90.1,1.7,89.7,3.2,88.9,4.6L96.8,0" stroke-linecap="round" fill="#236ea1"/></g><g transform="translate(1979.32,613.09)" id="shape75"><path stroke-width="2.33333" stroke="#236ea1" d="M0,0L0,-409.8L-635.6,-409.8L-635.6,-249.8" stroke-dasharray="6,4" fill="none"/><rect width="26.6" height="15" x="-205.8" y="-417.3" fill="#ffffff"/><text class="st3"><tspan x="-205.9" y="-405.3">恋人</tspan></text></g><g transform="translate(1993,363.29)" id="shape76"><path stroke-width="2.33333" stroke="#c00000" d="M45.7,40.4C51.9,40.4,57,35.3,57,29.1L57,11.3C57,5.1,51.9,0,45.7,0L11.3,0C5.1,0,0,5.1,0,11.3L0,29.1C0,35.3,5.1,40.4,11.3,40.4L45.7,40.4z" fill="none"/><text class="st2"><tspan x="16" y="24.7">歌者</tspan></text></g><g transform="translate(1271.85,790.88)" id="shape77"><path stroke-width="2.33333" d="M83.3,40.4C89.6,40.4,94.6,35.3,94.6,29.1L94.6,11.3C94.6,5.1,89.6,0,83.3,0L11.3,0C5.1,0,0,5.1,0,11.3L0,29.1C0,35.3,5.1,40.4,11.3,40.4L83.3,40.4z" stroke="#c00000" fill="#c2c2c2"/><text class="st5"><tspan x="10.3" y="24.7">恒星187J3X1</tspan></text></g><g transform="translate(1433.74,790.88)" id="shape78"><path stroke-width="2.33333" stroke="#c00000" d="M73.4,40.4C79.7,40.4,84.7,35.3,84.7,29.1L84.7,11.3C84.7,5.1,79.7,0,73.4,0L11.3,0C5.1,0,0,5.1,0,11.3L0,29.1C0,35.3,5.1,40.4,11.3,40.4L73.4,40.4z" fill="none"/><text class="st6"><tspan x="29.4" y="24.7">光粒</tspan></text></g><g transform="matrix(0.51,0.86,-0.86,0.51,1188.4,671.2)" id="shape79"><path stroke-width="2.33333" stroke="#236ea1" d="M0,0L156.2,0" fill="none"/><path stroke-width="1" stroke="#236ea1" d="M162.9,0L155,-4.6C155.7,-3.2,156.2,-1.7,156.2,0C156.2,1.7,155.7,3.2,155,4.6L162.9,0" stroke-linecap="round" fill="#236ea1"/><rect width="26.6" height="15" x="68.6" y="-7.5" fill="#fefefe" transform="matrix(0.51,-0.86,0.86,0.51,39.7,69.9)"/><text class="st3" transform="matrix(0.51,-0.86,0.86,0.51,39.7,69.9)"><tspan x="68.4" y="4.5">咒语</tspan></text></g><g transform="matrix(-1,0,0,-1,1433.7,811.1)" id="shape80"><path stroke-width="2.33333" stroke="#236ea1" d="M0,0L60.5,0" fill="none"/><path stroke-width="1" stroke="#236ea1" d="M67.3,0L59.3,-4.6C60.1,-3.2,60.5,-1.7,60.5,0C60.5,1.7,60.1,3.2,59.3,4.6L67.3,0" stroke-linecap="round" fill="#236ea1"/><rect width="26.6" height="15" x="20.7" y="-7.5" fill="#fefefe" transform="matrix(-1,-0,0,-1,67.3,0)"/><text class="st3" transform="matrix(-1,-0,0,-1,67.3,0)"><tspan x="20.6" y="4.5">攻击</tspan></text></g><g transform="translate(959.98,409.69)" id="shape81"><path stroke-width="2.33333" stroke="#c00000" d="M0,30.5C0,13.7,23.7,0,53,0C82.3,0,106,13.7,106,30.5C106,47.3,82.3,61,53,61C23.7,61,0,47.3,0,30.5z" fill="none"/><text class="st4"><tspan x="24" y="26.5">1379号</tspan><tspan x="25" y="48.5">监听员</tspan></text></g><g transform="matrix(0.56,-0.83,0.83,0.56,1046.9,417)" id="shape82"><path stroke-width="5.33333" stroke="#236ea1" d="M10.1,0L106.7,0" fill="none"/><path stroke-width="1" stroke="#236ea1" d="M0,0L12,6.9C10.8,4.9,10.1,2.5,10.1,0C10.1,-2.5,10.8,-4.9,12,-6.9L0,0" stroke-linecap="round" fill="#236ea1"/><path stroke-width="1" stroke="#236ea1" d="M116.9,0L104.9,-6.9C106.1,-4.9,106.7,-2.5,106.7,0C106.7,2.5,106.1,4.9,104.9,6.9L116.9,0" stroke-linecap="round" fill="#236ea1"/><rect width="53.1" height="15" x="32.5" y="-7.5" fill="#fefefe" transform="matrix(0.56,0.83,-0.83,0.56,25.6,-48.3)"/><text class="st3" transform="matrix(0.56,0.83,-0.83,0.56,25.6,-48.3)"><tspan x="32.4" y="4.5">不要回答</tspan></text></g><g transform="translate(1065.98,440.19)" id="shape83"><path stroke-width="2.33333" stroke="#236ea1" d="M0,0L46.6,0L46.6,148.5" fill="none"/><path stroke-width="1" stroke="#236ea1" d="M46.6,155.2L51.2,147.3C49.8,148,48.2,148.5,46.6,148.5C44.9,148.5,43.3,148,42,147.3L46.6,155.2" stroke-linecap="round" fill="#236ea1"/><rect width="26.6" height="15" x="33.7" y="46.8" fill="#ffffff"/><text class="st3"><tspan x="33.6" y="58.8">抗议</tspan></text></g><g transform="translate(709.85,263.47)" id="shape84"><path stroke-width="2.33333" d="M79.7,37.9C85.9,37.9,91,32.8,91,26.5L91,11.3C91,5.1,85.9,0,79.7,0L11.3,0C5.1,0,0,5.1,0,11.3L0,26.5C0,32.8,5.1,37.9,11.3,37.9L79.7,37.9z" stroke="#c00000" fill="#303030"/><text class="st7"><tspan x="18" y="23.4">三体世界</tspan></text></g><g transform="translate(1096.31,282.41)" id="shape85"><path stroke-width="2.33333" stroke="#236ea1" d="M0,0L-288.8,0" fill="none"/><path stroke-width="1" stroke="#236ea1" d="M-295.5,0L-287.5,4.6C-288.3,3.2,-288.8,1.7,-288.8,0C-288.8,-1.7,-288.3,-3.2,-287.5,-4.6L-295.5,0" stroke-linecap="round" fill="#236ea1"/><rect width="53.1" height="15" x="-173.6" y="-7.5" fill="#ffffff"/><text class="st3"><tspan x="-173.7" y="4.5">入侵请求</tspan></text></g><g transform="translate(778.1,301.35)" id="shape86"><path stroke-width="2.33333" stroke="#236ea1" d="M0,0L0,138.8L175.2,138.8" fill="none"/><path stroke-width="1" stroke="#236ea1" d="M181.9,138.8L173.9,134.3C174.7,135.6,175.2,137.2,175.2,138.8C175.2,140.5,174.7,142.1,173.9,143.4L181.9,138.8" stroke-linecap="round" fill="#236ea1"/><rect width="26.6" height="15" x="8.6" y="131.3" fill="#ffffff"/><text class="st3"><tspan x="8.5" y="143.3">惩罚</tspan></text></g><g transform="translate(755.35,301.35)" id="shape87"><path stroke-width="2.33333" stroke="#ee7c31" d="M0,0L0,179.9L341,179.9L341,325.2" fill="none"/><path stroke-width="1" stroke="#ee7c31" d="M341,331.9L345.5,324C344.2,324.8,342.6,325.2,341,325.2C339.3,325.2,337.7,324.8,336.4,324L341,331.9" stroke-linecap="round" fill="#ee7c31"/><rect width="53.1" height="15" x="130.6" y="172.4" fill="#ffffff"/><text class="st3"><tspan x="130.5" y="184.4">下令刺杀</tspan></text></g><g transform="translate(910.65,658.88)" id="shape88"><path stroke-width="2.33333" stroke="#000000" d="M100.9,40.4C107.2,40.4,112.2,35.3,112.2,29.1L112.2,11.3C112.2,5.1,107.2,0,100.9,0L11.3,0C5.1,0,0,5.1,0,11.3L0,29.1C0,35.3,5.1,40.4,11.3,40.4L100.9,40.4z" fill="none"/><text class="st2"><tspan x="17.1" y="24.7">黑暗森林法则</tspan></text></g><g transform="translate(1026.21,759.29)" id="shape89"><path stroke-width="2.33333" d="M83.3,40.4C89.6,40.4,94.6,35.3,94.6,29.1L94.6,11.3C94.6,5.1,89.6,0,83.3,0L11.3,0C5.1,0,0,5.1,0,11.3L0,29.1C0,35.3,5.1,40.4,11.3,40.4L83.3,40.4z" stroke="#000000" fill="#c2c2c2"/><text class="st2"><tspan x="21.3" y="24.7">无名情人</tspan></text></g><g transform="translate(1112.55,671.21)" id="shape90"><path stroke-width="2.33333" stroke="#236ea1" d="M0,0L-102.9,78.1" fill="none"/><path stroke-width="1" stroke="#236ea1" d="M-108.2,82.1L-99.1,81C-100.6,80.4,-101.9,79.4,-102.9,78.1C-103.9,76.8,-104.5,75.2,-104.7,73.7L-108.2,82.1" stroke-linecap="round" fill="#236ea1"/></g><g transform="translate(1112.55,671.21)" id="shape91"><path stroke-width="2.33333" stroke="#236ea1" d="M0,0L-36.3,82" fill="none"/><path stroke-width="1" stroke="#236ea1" d="M-39,88.1L-31.6,82.7C-33.2,82.9,-34.8,82.6,-36.3,82C-37.8,81.3,-39.1,80.2,-40,79L-39,88.1" stroke-linecap="round" fill="#236ea1"/></g><g transform="translate(1096.31,633.29)" id="shape92"><path stroke-width="2.33333" stroke="#236ea1" d="M0,0L-67.4,32.8" fill="none"/><path stroke-width="1" stroke="#236ea1" d="M-73.4,35.7L-64.3,36.3C-65.6,35.5,-66.7,34.3,-67.4,32.8C-68.1,31.3,-68.4,29.7,-68.3,28.1L-73.4,35.7" stroke-linecap="round" fill="#236ea1"/></g><g transform="translate(589.69,487.13)" id="shape93"><path stroke-width="2.33333" stroke="#000000" d="M0,54.2C0,24.2,24.2,0,54.2,0C84.1,0,108.3,24.2,108.3,54.2C108.3,84.1,84.1,108.3,54.2,108.3C24.2,108.3,0,84.1,0,54.2z" stroke-dasharray="6,4" fill="none"/><text class="st1"><tspan x="24.2" y="61.7">希恩斯</tspan></text></g><g transform="translate(699,633.79)" id="shape94"><path stroke-width="5.33333" stroke="#ee7c31" d="M0,0L387.2,-0.5" fill="none"/><path stroke-width="1" stroke="#ee7c31" d="M397.3,-0.5L385.3,-7.4C386.5,-5.4,387.2,-3,387.2,-0.5C387.2,2,386.5,4.4,385.3,6.4L397.3,-0.5" stroke-linecap="round" fill="#ee7c31"/></g><g transform="matrix(0.99,0.13,-0.13,0.99,681.8,579.2)" id="shape95"><path stroke-width="2.33333" stroke="#236ea1" d="M0,0L418.1,0" stroke-dasharray="11,5" fill="none"/><rect width="66.4" height="15" x="176.6" y="-7.5" fill="#ffffff" transform="matrix(0.99,-0.13,0.13,0.99,1.8,27)"/><text class="st3" transform="matrix(0.99,-0.13,0.13,0.99,1.8,27)"><tspan x="176.5" y="4.5">面壁联络人</tspan></text></g><g transform="translate(804.48,521.09)" id="shape96"><path stroke-width="2.33333" d="M83.3,40.4C89.6,40.4,94.6,35.3,94.6,29.1L94.6,11.3C94.6,5.1,89.6,0,83.3,0L11.3,0C5.1,0,0,5.1,0,11.3L0,29.1C0,35.3,5.1,40.4,11.3,40.4L83.3,40.4z" stroke="#000000" fill="#c2c2c2"/><text class="st2"><tspan x="21.3" y="24.7">山杉惠子</tspan></text></g><g transform="translate(804.48,541.29)" id="shape97"><path stroke-width="2.33333" stroke="#236ea1" d="M0,0L-99.8,-0" fill="none"/><path stroke-width="1" stroke="#236ea1" d="M-106.5,-0L-98.5,4.6C-99.3,3.2,-99.8,1.7,-99.8,-0C-99.8,-1.7,-99.3,-3.2,-98.5,-4.6L-106.5,-0" stroke-linecap="round" fill="#236ea1"/><rect width="39.9" height="15" x="-72.6" y="-7.5" fill="#ffffff"/><text class="st3"><tspan x="-72.7" y="4.5">破壁人</tspan></text></g><g transform="translate(644,614)" id="shape98"><path stroke-width="2" stroke="#236ea1" d="M0,0L-0.1,-12.3" fill="none"/><path stroke-width="1" stroke="#236ea1" d="M-0.2,-18.5L-4.3,-11.2C-3.1,-11.9,-1.6,-12.3,-0.1,-12.3C1.4,-12.3,2.9,-11.9,4.2,-11.2L-0.2,-18.5" stroke-linecap="round" fill="#236ea1"/></g><g transform="translate(598.61,418.86)" id="shape99"><path stroke-width="2.33333" stroke="#000000" d="M79.1,40.4C85.4,40.4,90.5,35.3,90.5,29.1L90.5,11.3C90.5,5.1,85.4,0,79.1,0L11.3,0C5.1,0,0,5.1,0,11.3L0,29.1C0,35.3,5.1,40.4,11.3,40.4L79.1,40.4z" fill="none"/><text class="st2"><tspan x="19.2" y="24.7">思想钢印</tspan></text></g><g transform="translate(643.85,487.13)" id="shape100"><path stroke-width="2.33333" stroke="#236ea1" d="M0,0L0,-21.1" fill="none"/><path stroke-width="1" stroke="#236ea1" d="M0,-27.9L-4.6,-19.9C-3.2,-20.7,-1.7,-21.1,0,-21.1C1.7,-21.1,3.2,-20.7,4.6,-19.9L0,-27.9" stroke-linecap="round" fill="#236ea1"/></g><g transform="translate(804.48,531.19)" id="shape101"><path stroke-width="2.33333" stroke="#236ea1" d="M0,0L-132.1,-68.8" fill="none"/><path stroke-width="1" stroke="#236ea1" d="M-138,-71.9L-133.1,-64.2C-133.2,-65.7,-132.8,-67.3,-132.1,-68.8C-131.3,-70.3,-130.2,-71.5,-128.9,-72.3L-138,-71.9" stroke-linecap="round" fill="#236ea1"/><rect width="53.1" height="15" x="-94.9" y="-43.5" fill="#ffffff"/><text class="st3"><tspan x="-95" y="-31.5">模拟大脑</tspan></text></g><g transform="translate(598.61,351.88)" id="shape102"><path stroke-width="2.33333" stroke="#000000" d="M79.1,40.4C85.4,40.4,90.5,35.3,90.5,29.1L90.5,11.3C90.5,5.1,85.4,0,79.1,0L11.3,0C5.1,0,0,5.1,0,11.3L0,29.1C0,35.3,5.1,40.4,11.3,40.4L79.1,40.4z" fill="none"/><text class="st2"><tspan x="26.2" y="24.7">钢印族</tspan></text></g><g transform="translate(643.85,418.86)" id="shape103"><path stroke-width="2.33333" stroke="#236ea1" d="M0,0L0,-19.9" fill="none"/><path stroke-width="1" stroke="#236ea1" d="M0,-26.6L-4.6,-18.6C-3.2,-19.4,-1.7,-19.9,0,-19.9C1.7,-19.9,3.2,-19.4,4.6,-18.6L0,-26.6" stroke-linecap="round" fill="#236ea1"/></g><g transform="translate(380.84,579.21)" id="shape104"><path stroke-width="2.33333" d="M0,54.2C0,24.2,24.2,0,54.2,0C84.1,0,108.3,24.2,108.3,54.2C108.3,84.1,84.1,108.3,54.2,108.3C24.2,108.3,0,84.1,0,54.2z" stroke="#000000" stroke-dasharray="11,5" fill="#c2c2c2"/><text class="st1"><tspan x="34.2" y="61.7">泰勒</tspan></text></g><g transform="translate(582,633.79)" id="shape105"><path stroke-width="2.33333" stroke="#236ea1" d="M0,0L-86.1,-0.4" fill="none"/><path stroke-width="1" stroke="#236ea1" d="M-92.8,-0.4L-84.9,4.2C-85.7,2.8,-86.1,1.3,-86.1,-0.4C-86.1,-2.1,-85.7,-3.6,-84.9,-5L-92.8,-0.4" stroke-linecap="round" fill="#236ea1"/></g><g transform="translate(389.76,500.79)" id="shape106"><path stroke-width="2.33333" stroke="#000000" d="M79.1,40.4C85.4,40.4,90.5,35.3,90.5,29.1L90.5,11.3C90.5,5.1,85.4,0,79.1,0L11.3,0C5.1,0,0,5.1,0,11.3L0,29.1C0,35.3,5.1,40.4,11.3,40.4L79.1,40.4z" fill="none"/><text class="st2"><tspan x="16.2" y="24.7">破壁人1号</tspan></text></g><g transform="translate(435,541.21)" id="shape107"><path stroke-width="2.33333" stroke="#236ea1" d="M0,0L-0,31.3" fill="none"/><path stroke-width="1" stroke="#236ea1" d="M-0,38L4.6,30.1C3.2,30.8,1.7,31.3,-0,31.3C-1.7,31.3,-3.2,30.8,-4.6,30.1L-0,38" stroke-linecap="round" fill="#236ea1"/></g><g transform="translate(378,718.21)" id="shape108"><path stroke-width="2.33333" d="M22,44L92,44C104.2,44,114,34.2,114,22C114,9.8,104.2,0,92,0L22,0C9.8,0,0,9.8,0,22C0,34.2,9.8,44,22,44z" stroke="#000000" fill="#afafaf"/><text class="st2"><tspan x="18" y="26.5">量子舰队计划</tspan></text></g><g transform="translate(546.16,692.21)" id="shape109"><path stroke-width="2.33333" stroke="#000000" d="M79.1,40.4C85.4,40.4,90.5,35.3,90.5,29.1L90.5,11.3C90.5,5.1,85.4,0,79.1,0L11.3,0C5.1,0,0,5.1,0,11.3L0,29.1C0,35.3,5.1,40.4,11.3,40.4L79.1,40.4z" fill="none"/><text class="st2"><tspan x="19.2" y="24.7">本●拉登</tspan></text></g><g transform="translate(435,687.53)" id="shape110"><path stroke-width="2.33333" stroke="#236ea1" d="M0,0L0,24" fill="none"/><path stroke-width="1" stroke="#236ea1" d="M0,30.7L4.6,22.7C3.2,23.5,1.7,24,0,24C-1.7,24,-3.2,23.5,-4.6,22.7L0,30.7" stroke-linecap="round" fill="#236ea1"/></g><g transform="translate(472.91,671.28)" id="shape111"><path stroke-width="2.33333" stroke="#236ea1" d="M0,0L67.1,28.4" fill="none"/><path stroke-width="1" stroke="#236ea1" d="M73.2,31L67.7,23.7C67.9,25.3,67.7,26.9,67.1,28.4C66.4,30,65.4,31.2,64.2,32.2L73.2,31" stroke-linecap="round" fill="#236ea1"/></g><g transform="translate(740.69,718.21)" id="shape112"><path stroke-width="2.33333" d="M0,54.2C0,24.2,24.2,0,54.2,0C84.1,0,108.3,24.2,108.3,54.2C108.3,84.1,84.1,108.3,54.2,108.3C24.2,108.3,0,84.1,0,54.2z" stroke="#000000" stroke-dasharray="11,5" fill="#c2c2c2"/><text class="st1"><tspan x="14.2" y="61.7">雷迪亚兹</tspan></text></g><g transform="translate(749.61,647.04)" id="shape113"><path stroke-width="2.33333" stroke="#000000" d="M79.1,40.4C85.4,40.4,90.5,35.3,90.5,29.1L90.5,11.3C90.5,5.1,85.4,0,79.1,0L11.3,0C5.1,0,0,5.1,0,11.3L0,29.1C0,35.3,5.1,40.4,11.3,40.4L79.1,40.4z" fill="none"/><text class="st2"><tspan x="16.2" y="24.7">破壁人1号</tspan></text></g><g transform="translate(794.85,687.45)" id="shape114"><path stroke-width="2.33333" stroke="#236ea1" d="M0,0L-0,24" fill="none"/><path stroke-width="1" stroke="#236ea1" d="M-0,30.8L4.6,22.8C3.2,23.6,1.7,24,-0,24C-1.7,24,-3.2,23.6,-4.6,22.8L-0,30.8" stroke-linecap="round" fill="#236ea1"/></g><g transform="translate(749.61,857.28)" id="shape115"><path stroke-width="2.33333" stroke="#000000" d="M79.1,40.4C85.4,40.4,90.5,35.3,90.5,29.1L90.5,11.3C90.5,5.1,85.4,0,79.1,0L11.3,0C5.1,0,0,5.1,0,11.3L0,29.1C0,35.3,5.1,40.4,11.3,40.4L79.1,40.4z" fill="none"/><text class="st2"><tspan x="13.2" y="24.7">威廉科兹莫</tspan></text></g><g transform="translate(794.85,826.53)" id="shape116"><path stroke-width="2.33333" stroke="#236ea1" d="M0,0L0,24" fill="none"/><path stroke-width="1" stroke="#236ea1" d="M0,30.8L4.6,22.8C3.2,23.6,1.7,24,0,24C-1.7,24,-3.2,23.6,-4.6,22.8L0,30.8" stroke-linecap="round" fill="#236ea1"/></g><g transform="translate(639,654)" id="shape117"><path stroke-width="5.33333" stroke="#ee7c31" d="M0,0L109.6,74.7" fill="none"/><path stroke-width="1" stroke="#ee7c31" d="M117.9,80.5L111.9,68C111.8,70.3,111,72.7,109.6,74.7C108.1,76.8,106.2,78.4,104.1,79.4L117.9,80.5" stroke-linecap="round" fill="#ee7c31"/></g><g transform="translate(589.69,885.79)" id="shape118"><path stroke-width="2.33333" stroke="#000000" d="M0,30.5C0,13.7,23.7,0,53,0C82.3,0,106,13.7,106,30.5C106,47.3,82.3,61,53,61C23.7,61,0,47.3,0,30.5z" fill="none"/><text class="st4"><tspan x="38" y="37.5">PDC</tspan></text></g><g transform="translate(642.69,885.79)" id="shape119"><path stroke-width="2.33333" stroke="#236ea1" d="M0,0L-3.6,-225.1" fill="none"/><path stroke-width="1" stroke="#236ea1" d="M-3.7,-231.8L-8.1,-223.8C-6.8,-224.6,-5.2,-225.1,-3.6,-225.1C-1.9,-225.1,-0.3,-224.7,1,-223.9L-3.7,-231.8" stroke-linecap="round" fill="#236ea1"/></g><g transform="translate(898.85,836.29)" id="shape120"><path stroke-width="2.33333" stroke="#000000" d="M0,42L94,42L94,10.5L83.5,0L10.5,0L0,10.5L0,42z" fill="none"/><text class="st2"><tspan x="21" y="25.5">建立威慑</tspan></text></g><g transform="translate(945.85,772.71)" id="shape121"><path stroke-width="2.33333" stroke="#236ea1" d="M0,0L0,56.9" fill="none"/><path stroke-width="1" stroke="#236ea1" d="M0,63.6L4.6,55.6C3.2,56.4,1.7,56.9,0,56.9C-1.7,56.9,-3.2,56.4,-4.6,55.6L0,63.6" stroke-linecap="round" fill="#236ea1"/><rect width="53.1" height="15" x="-25.9" y="24.3" fill="#ffffff"/><text class="st3"><tspan x="-26" y="36.3">摇篮系统</tspan></text></g><g transform="translate(849.01,772.37)" id="shape122"><path stroke-width="2.33333" stroke="#ee7c31" d="M0,0L66.7,28.3" stroke-dasharray="11,5" fill="none"/><path stroke-width="1" stroke="#ee7c31" d="M72.8,30.9L67.3,23.6C67.5,25.1,67.3,26.8,66.7,28.3C66,29.8,65,31.1,63.7,32L72.8,30.9" stroke-linecap="round" fill="#ee7c31"/></g><g transform="translate(896.85,885.79)" id="shape123"><path stroke-width="2.33333" stroke="#000000" d="M0,30.5C0,13.7,23.7,0,53,0C82.3,0,106,13.7,106,30.5C106,47.3,82.3,61,53,61C23.7,61,0,47.3,0,30.5z" fill="none"/><text class="st4"><tspan x="38" y="37.5">PIA</tspan></text></g><g transform="translate(695.69,916.29)" id="shape124"><path stroke-width="2.33333" stroke="#236ea1" d="M0,0L194.5,0" fill="none"/><path stroke-width="1" stroke="#236ea1" d="M201.2,0L193.2,-4.6C194,-3.2,194.5,-1.7,194.5,0C194.5,1.7,194,3.2,193.2,4.6L201.2,0" stroke-linecap="round" fill="#236ea1"/></g><g transform="translate(398.68,896.09)" id="shape125"><path stroke-width="2.33333" stroke="#000000" d="M79.1,40.4C85.4,40.4,90.5,35.3,90.5,29.1L90.5,11.3C90.5,5.1,85.4,0,79.1,0L11.3,0C5.1,0,0,5.1,0,11.3L0,29.1C0,35.3,5.1,40.4,11.3,40.4L79.1,40.4z" fill="none"/><text class="st2"><tspan x="32.2" y="24.7">萨伊</tspan></text></g><g transform="translate(589.69,916.29)" id="shape126"><path stroke-width="2.33333" stroke="#236ea1" d="M0,0L-93.8,0" fill="none"/><path stroke-width="1" stroke="#236ea1" d="M-100.5,0L-92.6,4.6C-93.4,3.2,-93.8,1.7,-93.8,0C-93.8,-1.7,-93.4,-3.2,-92.6,-4.6L-100.5,0" stroke-linecap="round" fill="#236ea1"/><rect width="53.1" height="15" x="-76.2" y="-7.5" fill="#ffffff"/><text class="st3"><tspan x="-76.3" y="4.5">轮值主席</tspan></text></g><g transform="translate(394.84,836.29)" id="shape127"><path stroke-width="2.33333" stroke="#000000" d="M86.8,40.4C93.1,40.4,98.2,35.3,98.2,29.1L98.2,11.3C98.2,5.1,93.1,0,86.8,0L11.3,0C5.1,0,0,5.1,0,11.3L0,29.1C0,35.3,5.1,40.4,11.3,40.4L86.8,40.4z" fill="none"/><text class="st2"><tspan x="10.1" y="24.7">面壁者的微笑</tspan></text></g><g transform="translate(443.92,896.09)" id="shape128"><path stroke-width="2.33333" stroke="#236ea1" d="M0,0L0,-12.7" fill="none"/><path stroke-width="1" stroke="#236ea1" d="M0,-19.4L-4.6,-11.4C-3.2,-12.2,-1.7,-12.7,0,-12.7C1.7,-12.7,3.2,-12.2,4.6,-11.4L0,-19.4" stroke-linecap="round" fill="#236ea1"/></g><g transform="translate(443.92,936.5)" id="shape129"><path stroke-width="2.33333" stroke="#236ea1" d="M0,0L0,34.1" fill="none"/><path stroke-width="1" stroke="#236ea1" d="M0,40.8L4.6,32.9C3.2,33.6,1.7,34.1,0,34.1C-1.7,34.1,-3.2,33.6,-4.6,32.9L0,40.8" stroke-linecap="round" fill="#236ea1"/></g><g transform="translate(681.76,945.13)" id="shape130"><path stroke-width="2.33333" d="M0,54.2C0,24.2,24.2,0,54.2,0C84.1,0,108.3,24.2,108.3,54.2C108.3,84.1,84.1,108.3,54.2,108.3C24.2,108.3,0,84.1,0,54.2z" stroke="#000000" fill="#c2c2c2"/><text class="st1"><tspan x="34.2" y="61.7">维德</tspan></text></g><g transform="translate(915.93,939.47)" id="shape131"><path stroke-width="2.33333" stroke="#236ea1" d="M0,0L-135.5,20.9" fill="none"/><path stroke-width="1" stroke="#236ea1" d="M-142.1,21.9L-133.6,25.2C-134.5,24,-135.2,22.5,-135.5,20.9C-135.7,19.2,-135.5,17.6,-134.9,16.2L-142.1,21.9" stroke-linecap="round" fill="#236ea1"/></g><g transform="translate(1096.31,945.13)" id="shape132"><path stroke-width="2.33333" stroke="#000000" d="M0,54.2C0,24.2,24.2,0,54.2,0C84.1,0,108.3,24.2,108.3,54.2C108.3,84.1,84.1,108.3,54.2,108.3C24.2,108.3,0,84.1,0,54.2z" fill="none"/><text class="st1"><tspan x="34.2" y="61.7">程心</tspan></text></g><g transform="translate(790.08,999.29)" id="shape133"><path stroke-width="5.33333" stroke="#ee7c31" d="M0,0L296.1,0" fill="none"/><path stroke-width="1" stroke="#ee7c31" d="M306.2,0L294.2,-6.9C295.4,-4.9,296.1,-2.5,296.1,0C296.1,2.5,295.4,4.9,294.2,6.9L306.2,0" stroke-linecap="round" fill="#ee7c31"/><rect width="130.8" height="15" x="89.8" y="-22.5" fill="#ffffff"/><rect width="186" height="15" x="62.2" y="-7.5" fill="#ffffff"/><rect width="155.3" height="15" x="77.6" y="7.5" fill="#ffffff"/><text class="st3"><tspan x="89.1" y="-10.5"> 领导   →     暗杀</tspan><tspan x="62.1" y="4.5" class="st8">                 ↓    </tspan><tspan x="77.1" y="19.5">履行承诺  ←   全权代理</tspan></text></g><g transform="translate(1150.47,687.45)" id="shape134"><path stroke-width="5.33333" stroke="#ee7c31" d="M0,0L0,247.5" fill="none"/><path stroke-width="1" stroke="#ee7c31" d="M0,257.7L6.9,245.7C4.9,246.9,2.5,247.5,0,247.5C-2.5,247.5,-4.9,246.9,-6.9,245.7L0,257.7" stroke-linecap="round" fill="#ee7c31"/></g><g transform="translate(841.85,1098.79)" id="shape135"><path stroke-width="2.33333" stroke="#000000" d="M0,30.5C0,13.7,23.7,0,53,0C82.3,0,106,13.7,106,30.5C106,47.3,82.3,61,53,61C23.7,61,0,47.3,0,30.5z" fill="none"/><text class="st9"><tspan x="15" y="37.5">星环集团</tspan></text></g><g transform="translate(983.85,1109.08)" id="shape136"><path stroke-width="2.33333" stroke="#000000" d="M79.1,40.4C85.4,40.4,90.5,35.3,90.5,29.1L90.5,11.3C90.5,5.1,85.4,0,79.1,0L11.3,0C5.1,0,0,5.1,0,11.3L0,29.1C0,35.3,5.1,40.4,11.3,40.4L79.1,40.4z" fill="none"/><text class="st3"><tspan x="19.2" y="24.7">光速飞船</tspan></text></g><g transform="translate(735.92,1053.45)" id="shape137"><path stroke-width="5.33333" stroke="#ee7c31" d="M0,0L0,75.8L237.8,75.8" fill="none"/><path stroke-width="1" stroke="#ee7c31" d="M247.9,75.8L235.9,68.9C237.1,70.9,237.8,73.3,237.8,75.8C237.8,78.4,237.1,80.7,235.9,82.8L247.9,75.8" stroke-linecap="round" fill="#ee7c31"/></g><g transform="translate(845.77,1031.88)" id="shape138"><path stroke-width="2.33333" stroke="#000000" d="M86.8,40.4C93.1,40.4,98.2,35.3,98.2,29.1L98.2,11.3C98.2,5.1,93.1,0,86.8,0L11.3,0C5.1,0,0,5.1,0,11.3L0,29.1C0,35.3,5.1,40.4,11.3,40.4L86.8,40.4z" fill="none"/><text class="st2"><tspan x="36.1" y="24.7">艾AA</tspan></text></g><g transform="translate(894.85,1072.29)" id="shape139"><path stroke-width="2.33333" stroke="#236ea1" d="M0,0L0,19.8" fill="none"/><path stroke-width="1" stroke="#236ea1" d="M0,26.5L4.6,18.6C3.2,19.3,1.7,19.8,0,19.8C-1.7,19.8,-3.2,19.3,-4.6,18.6L0,26.5" stroke-linecap="round" fill="#236ea1"/></g><g transform="translate(845.77,1186.29)" id="shape140"><path stroke-width="2.33333" stroke="#ff0000" d="M86.8,40.4C93.1,40.4,98.2,35.3,98.2,29.1L98.2,11.3C98.2,5.1,93.1,0,86.8,0L11.3,0C5.1,0,0,5.1,0,11.3L0,29.1C0,35.3,5.1,40.4,11.3,40.4L86.8,40.4z" fill="none"/><text class="st6"><tspan x="36.1" y="24.7">蓝星</tspan></text></g><g transform="translate(894.85,1186.29)" id="shape141"><path stroke-width="2.33333" stroke="#236ea1" d="M0,0L0,-19.8" fill="none"/><path stroke-width="1" stroke="#236ea1" d="M0,-26.5L-4.6,-18.6C-3.2,-19.3,-1.7,-19.8,0,-19.8C1.7,-19.8,3.2,-19.3,4.6,-18.6L0,-26.5" stroke-linecap="round" fill="#236ea1"/></g><g transform="translate(943.93,1052.09)" id="shape142"><path stroke-width="2.33333" stroke="#236ea1" d="M0,0L72.9,0L72.9,164.5L6.7,164.5" fill="none"/><path stroke-width="1" stroke="#236ea1" d="M0,164.5L7.9,169.1C7.2,167.8,6.7,166.2,6.7,164.5C6.7,162.8,7.2,161.3,7.9,159.9L0,164.5" stroke-linecap="round" fill="#236ea1"/></g><g transform="translate(1112.55,1037.21)" id="shape143"><path stroke-width="2.33333" stroke="#236ea1" d="M0,0L-83.5,0L-83.5,159.2L-161.9,159.2" fill="none"/><path stroke-width="1" stroke="#236ea1" d="M-168.6,159.2L-160.7,163.8C-161.5,162.4,-161.9,160.9,-161.9,159.2C-161.9,157.5,-161.5,156,-160.7,154.6L-168.6,159.2" stroke-linecap="round" fill="#236ea1"/></g><g transform="translate(983.77,939.47)" id="shape144"><path stroke-width="2.33333" stroke="#236ea1" d="M0,0L122.2,20.8" fill="none"/><path stroke-width="1" stroke="#236ea1" d="M128.8,21.9L121.7,16.1C122.3,17.5,122.5,19.1,122.2,20.8C121.9,22.4,121.2,23.9,120.2,25.1L128.8,21.9" stroke-linecap="round" fill="#236ea1"/></g><g transform="translate(690.68,1329.88)" id="shape145"><path stroke-width="2.33333" stroke="#000000" d="M79.1,40.4C85.4,40.4,90.5,35.3,90.5,29.1L90.5,11.3C90.5,5.1,85.4,0,79.1,0L11.3,0C5.1,0,0,5.1,0,11.3L0,29.1C0,35.3,5.1,40.4,11.3,40.4L79.1,40.4z" fill="none"/><text class="st2"><tspan x="19.2" y="24.7">三个童话</tspan></text></g><g transform="translate(822.85,1273.29)" id="shape146"><path stroke-width="2.33333" d="M20,42L74,42L94,21L74,0L20,0L0,21L20,42z" stroke="#000000" fill="#afafaf"/><text class="st2"><tspan x="21" y="25.5">黑域计划</tspan></text></g><g transform="translate(822.85,1328.29)" id="shape147"><path stroke-width="2.33333" d="M20,42L74,42L94,21L74,0L20,0L0,21L20,42z" stroke="#000000" fill="#afafaf"/><text class="st2"><tspan x="21" y="25.5">掩体计划</tspan></text></g><g transform="translate(781.16,1350.09)" id="shape148"><path stroke-width="2.33333" stroke="#236ea1" d="M0,0L35,-0.7" fill="none"/><path stroke-width="1" stroke="#236ea1" d="M41.7,-0.8L33.7,-5.2C34.5,-3.9,34.9,-2.3,35,-0.7C35,1,34.6,2.6,33.8,3.9L41.7,-0.8" stroke-linecap="round" fill="#236ea1"/></g><g transform="translate(758.54,1329.88)" id="shape149"><path stroke-width="2.33333" stroke="#236ea1" d="M0,0L58.4,-32.3" fill="none"/><path stroke-width="1" stroke="#236ea1" d="M64.3,-35.6L55.1,-35.8C56.5,-35,57.6,-33.8,58.4,-32.3C59.2,-30.9,59.6,-29.3,59.6,-27.7L64.3,-35.6" stroke-linecap="round" fill="#236ea1"/></g><g transform="translate(735.92,1329.88)" id="shape150"><path stroke-width="5.33333" stroke="#ee7c31" d="M0,0L0,-168.4" fill="none"/><path stroke-width="1" stroke="#ee7c31" d="M0,-178.6L-6.9,-166.6C-4.9,-167.8,-2.5,-168.4,0,-168.4C2.5,-168.4,4.9,-167.8,6.9,-166.6L0,-178.6" stroke-linecap="round" fill="#ee7c31"/></g><g transform="translate(1033.77,1236.08)" id="shape151"><path stroke-width="2.33333" stroke="#ff0000" d="M86.8,40.4C93.1,40.4,98.2,35.3,98.2,29.1L98.2,11.3C98.2,5.1,93.1,0,86.8,0L11.3,0C5.1,0,0,5.1,0,11.3L0,29.1C0,35.3,5.1,40.4,11.3,40.4L86.8,40.4z" fill="none"/><text class="st6"><tspan x="36.1" y="17.2">恒星</tspan><tspan x="28.1" y="32.2">DX3906</tspan></text></g><g transform="translate(1033.77,1256.29)" id="shape152"><path stroke-width="2.33333" stroke="#236ea1" d="M0,0L-138.9,0L-138.9,-22.9" fill="none"/><path stroke-width="1" stroke="#236ea1" d="M-138.9,-29.6L-143.5,-21.6C-142.2,-22.4,-140.6,-22.9,-138.9,-22.9C-137.2,-22.9,-135.7,-22.4,-134.3,-21.6L-138.9,-29.6" stroke-linecap="round" fill="#236ea1"/><rect width="26.6" height="15" x="-97.1" y="-7.5" fill="#ffffff"/><text class="st3"><tspan x="-97.3" y="4.5">行星</tspan></text></g><g transform="translate(1037.61,1061.06)" id="shape153"><path stroke-width="2.33333" stroke="#000000" d="M52.9,40.4C59.2,40.4,64.2,35.3,64.2,29.1L64.2,11.3C64.2,5.1,59.2,0,52.9,0L11.3,0C5.1,0,0,5.1,0,11.3L0,29.1C0,35.3,5.1,40.4,11.3,40.4L52.9,40.4z" fill="none"/><text class="st2"><tspan x="13.1" y="24.7">小宇宙</tspan></text></g><g transform="translate(1112.55,1037.21)" id="shape154"><path stroke-width="2.33333" stroke="#236ea1" d="M0,0L-21.8,19.4" fill="none"/><path stroke-width="1" stroke="#236ea1" d="M-26.8,23.9L-17.8,22C-19.3,21.5,-20.6,20.6,-21.8,19.4C-22.9,18.1,-23.6,16.7,-23.9,15.2L-26.8,23.9" stroke-linecap="round" fill="#236ea1"/></g><g transform="translate(1110.32,1107.29)" id="shape155"><path stroke-width="2.33333" stroke="#000000" d="M52.9,40.4C59.2,40.4,64.2,35.3,64.2,29.1L64.2,11.3C64.2,5.1,59.2,0,52.9,0L11.3,0C5.1,0,0,5.1,0,11.3L0,29.1C0,35.3,5.1,40.4,11.3,40.4L52.9,40.4z" fill="none"/><text class="st2"><tspan x="13.1" y="17.2">五公斤</tspan><tspan x="13.1" y="32.2">漂流瓶</tspan></text></g><g transform="translate(1112.55,1037.21)" id="shape156"><path stroke-width="2.33333" stroke="#ee7c31" d="M0,0L-48.2,0L-48.2,90.3L-8.9,90.3" fill="none"/><path stroke-width="1" stroke="#ee7c31" d="M-2.2,90.3L-10.2,85.7C-9.4,87.1,-8.9,88.6,-8.9,90.3C-8.9,92,-9.4,93.5,-10.2,94.9L-2.2,90.3" stroke-linecap="round" fill="#ee7c31"/></g><g transform="translate(1088.28,1353.13)" id="shape157"><path stroke-width="2.33333" stroke="#000000" d="M0,54.2C0,24.2,24.2,0,54.2,0C84.1,0,108.3,24.2,108.3,54.2C108.3,84.1,84.1,108.3,54.2,108.3C24.2,108.3,0,84.1,0,54.2z" fill="none"/><text class="st1"><tspan x="24.2" y="61.7">云天明</tspan></text></g><g transform="translate(1088.28,1407.29)" id="shape158"><path stroke-width="5.33333" stroke="#ee7c31" d="M0,0L-352.4,0L-352.4,-26.9" fill="none"/><path stroke-width="1" stroke="#ee7c31" d="M-352.4,-37L-359.3,-25C-357.3,-26.2,-354.9,-26.9,-352.4,-26.9C-349.8,-26.9,-347.5,-26.2,-345.4,-25L-352.4,-37" stroke-linecap="round" fill="#ee7c31"/></g><g transform="translate(593.27,1386.29)" id="shape159"><path stroke-width="2.33333" stroke="#000000" d="M20,42L78.8,42L98.8,21L78.8,0L20,0L0,21L20,42z" fill="none"/><text class="st2"><tspan x="23.4" y="25.5">群星计划</tspan></text></g><g transform="translate(692.11,1407.29)" id="shape160"><path stroke-width="2.33333" stroke="#236ea1" d="M0,0L389.5,-0" fill="none"/><path stroke-width="1" stroke="#236ea1" d="M396.2,-0L388.2,-4.6C389,-3.2,389.5,-1.7,389.5,-0C389.5,1.7,389,3.2,388.2,4.6L396.2,-0" stroke-linecap="round" fill="#236ea1"/><rect width="26.6" height="15" x="185.2" y="-7.5" fill="#ffffff"/><text class="st3"><tspan x="185.1" y="4.5">程心</tspan></text></g><g transform="translate(642.69,946.79)" id="shape161"><path stroke-width="2.33333" stroke="#236ea1" d="M0,0L.2,434.8" fill="none"/><path stroke-width="1" stroke="#236ea1" d="M.2,441.5L4.7,433.6C3.4,434.3,1.8,434.8,.2,434.8C-1.5,434.8,-3.1,434.3,-4.4,433.6L.2,441.5" stroke-linecap="round" fill="#236ea1"/></g><g transform="translate(1104.53,1369.38)" id="shape162"><path stroke-width="2.33333" stroke="#92d050" d="M0,0L-50.7,0L-50.7,-332.2L1.3,-332.2" fill="none"/><path stroke-width="1" stroke="#92d050" d="M8,-332.2L.1,-336.8C.9,-335.4,1.3,-333.8,1.3,-332.2C1.3,-330.5,.9,-328.9,.1,-327.6L8,-332.2" stroke-linecap="round" fill="#92d050"/><rect width="66.4" height="15" x="-83.1" y="-167.6" fill="#ffffff"/><text class="st3"><tspan x="-83.2" y="-155.6">礼物输出线</tspan></text></g><g transform="translate(1192.01,1162.29)" id="shape163"><path stroke-width="2.33333" stroke="#000000" d="M20,42L78.8,42L98.8,21L78.8,0L20,0L0,21L20,42z" fill="none"/><text class="st2"><tspan x="23.4" y="25.5">阶梯计划</tspan></text></g><g transform="translate(1193.93,1274.88)" id="shape164"><path stroke-width="2.33333" stroke="#000000" d="M83.7,40.4C89.9,40.4,95,35.3,95,29.1L95,11.3C95,5.1,89.9,0,83.7,0L11.3,0C5.1,0,0,5.1,0,11.3L0,29.1C0,35.3,5.1,40.4,11.3,40.4L83.7,40.4z" fill="none"/><text class="st2"><tspan x="35" y="24.7">种子</tspan></text></g><g transform="translate(1188.38,1037.21)" id="shape165"><path stroke-width="2.33333" stroke="#ee7c31" d="M0,0L50.5,0L50.5,332.2L-1.3,332.2" fill="none"/><path stroke-width="1" stroke="#ee7c31" d="M-8,332.2L-0.1,336.8C-0.9,335.4,-1.3,333.8,-1.3,332.2C-1.3,330.5,-0.9,328.9,-0.1,327.6L-8,332.2" stroke-linecap="round" fill="#ee7c31"/><rect width="66.4" height="15" x="16.1" y="174.6" fill="#ffffff"/><text class="st3"><tspan x="16" y="186.6">绝望输出线</tspan></text></g><g transform="translate(1591.77,1165.71)" id="shape166"><path stroke-width="2.33333" d="M0,30.5C0,13.7,23.7,0,53,0C82.3,0,106,13.7,106,30.5C106,47.3,82.3,61,53,61C23.7,61,0,47.3,0,30.5z" stroke="#000000" fill="#000000"/><text class="st10"><tspan x="15" y="37.5">星舰地球</tspan></text></g><g transform="translate(1349.85,1064.15)" id="shape167"><path stroke-width="2.33333" stroke="#000000" d="M86.8,34.2C93.1,34.2,98.2,29.2,98.2,22.9L98.2,11.3C98.2,5.1,93.1,0,86.8,0L11.3,0C5.1,0,0,5.1,0,11.3L0,22.9C0,29.2,5.1,34.2,11.3,34.2L86.8,34.2z" fill="none"/><text class="st2"><tspan x="30.1" y="21.6">关一凡</tspan></text></g><g transform="translate(1349.85,1122.79)" id="shape168"><path stroke-width="2.33333" d="M86.8,37C93.1,37,98.2,31.9,98.2,25.7L98.2,11.3C98.2,5.1,93.1,0,86.8,0L11.3,0C5.1,0,0,5.1,0,11.3L0,25.7C0,31.9,5.1,37,11.3,37L86.8,37z" stroke="#000000" fill="#000000"/><text class="st11"><tspan x="30.1" y="23">新世界</tspan></text></g><g transform="translate(1349.85,1236.08)" id="shape169"><path stroke-width="2.33333" stroke="#000000" d="M86.8,40.4C93.1,40.4,98.2,35.3,98.2,29.1L98.2,11.3C98.2,5.1,93.1,0,86.8,0L11.3,0C5.1,0,0,5.1,0,11.3L0,29.1C0,35.3,5.1,40.4,11.3,40.4L86.8,40.4z" fill="none"/><text class="st2"><tspan x="17.1" y="24.7">金牛座战役</tspan></text></g><g transform="translate(1349.85,1314.29)" id="shape170"><path stroke-width="2.33333" d="M86.8,37C93.1,37,98.2,31.9,98.2,25.7L98.2,11.3C98.2,5.1,93.1,0,86.8,0L11.3,0C5.1,0,0,5.1,0,11.3L0,25.7C0,31.9,5.1,37,11.3,37L86.8,37z" stroke="#000000" fill="#000000"/><text class="st11"><tspan x="10.1" y="23">三体第二舰队</tspan></text></g><g transform="translate(1349.85,1388.79)" id="shape171"><path stroke-width="2.33333" d="M86.8,37C93.1,37,98.2,31.9,98.2,25.7L98.2,11.3C98.2,5.1,93.1,0,86.8,0L11.3,0C5.1,0,0,5.1,0,11.3L0,25.7C0,31.9,5.1,37,11.3,37L86.8,37z" stroke="#000000" fill="#000000"/><text class="st11"><tspan x="10.1" y="23">三体第一舰队</tspan></text></g><g transform="translate(1349.85,1407.29)" id="shape172"><path stroke-width="2.33333" stroke="#236ea1" d="M0,0L-146.5,-0" fill="none"/><path stroke-width="1" stroke="#236ea1" d="M-153.2,-0L-145.3,4.6C-146.1,3.2,-146.5,1.7,-146.5,-0C-146.5,-1.7,-146.1,-3.2,-145.3,-4.6L-153.2,-0" stroke-linecap="round" fill="#236ea1"/><rect width="26.6" height="15" x="-89.5" y="-7.5" fill="#ffffff"/><text class="st3"><tspan x="-89.6" y="4.5">复活</tspan></text></g><g transform="translate(1398.93,1314.29)" id="shape173"><path stroke-width="2.33333" stroke="#236ea1" d="M0,0L0,-31.1" fill="none"/><path stroke-width="1" stroke="#236ea1" d="M0,-37.8L-4.6,-29.9C-3.2,-30.6,-1.7,-31.1,0,-31.1C1.7,-31.1,3.2,-30.6,4.6,-29.9L0,-37.8" stroke-linecap="round" fill="#236ea1"/><rect width="26.6" height="15" x="-12.9" y="-26.4" fill="#ffffff"/><text class="st3"><tspan x="-13" y="-14.4">参战</tspan></text></g><g transform="translate(1398.93,1122.79)" id="shape174"><path stroke-width="2.33333" stroke="#236ea1" d="M0,0L0,-17.7" fill="none"/><path stroke-width="1" stroke="#236ea1" d="M0,-24.4L-4.6,-16.5C-3.2,-17.3,-1.7,-17.7,0,-17.7C1.7,-17.7,3.2,-17.3,4.6,-16.5L0,-24.4" stroke-linecap="round" fill="#236ea1"/></g><g transform="translate(1349.85,1081.27)" id="shape175"><path stroke-width="2.33333" stroke="#236ea1" d="M0,0L-241.3,0" fill="none"/><path stroke-width="1" stroke="#236ea1" d="M-248,0L-240.1,4.6C-240.8,3.2,-241.3,1.7,-241.3,0C-241.3,-1.7,-240.8,-3.2,-240.1,-4.6L-248,0" stroke-linecap="round" fill="#236ea1"/></g><g transform="translate(1482.77,1067.24)" id="shape176"><path stroke-width="2.33333" stroke="#000000" d="M86.8,34.2C93.1,34.2,98.2,29.2,98.2,22.9L98.2,11.3C98.2,5.1,93.1,0,86.8,0L11.3,0C5.1,0,0,5.1,0,11.3L0,22.9C0,29.2,5.1,34.2,11.3,34.2L86.8,34.2z" fill="none"/><text class="st3"><tspan x="23.1" y="21.6">广播坐标</tspan></text></g><g transform="translate(1531.85,1101.48)" id="shape177"><path stroke-width="2.33333" stroke="#236ea1" d="M0,0L0,231.3L-77.1,231.3" fill="none"/><path stroke-width="1" stroke="#236ea1" d="M-83.8,231.3L-75.9,235.9C-76.7,234.6,-77.1,233,-77.1,231.3C-77.1,229.6,-76.7,228.1,-75.9,226.7L-83.8,231.3" stroke-linecap="round" fill="#236ea1"/><rect width="26.6" height="15" x="-12.8" y="126.9" fill="#ffffff"/><rect width="26.6" height="15" x="-12.8" y="141.9" fill="#ffffff"/><rect width="26.6" height="15" x="-12.8" y="156.9" fill="#ffffff"/><text class="st3"><tspan x="-12.9" y="138.9">转向</tspan><tspan x="-12.9" y="153.9">加速</tspan><tspan x="-12.9" y="168.9">逃离</tspan></text></g><g transform="translate(1595.69,982.18)" id="shape178"><path stroke-width="2.33333" stroke="#000000" d="M86.8,34.2C93.1,34.2,98.2,29.2,98.2,22.9L98.2,11.3C98.2,5.1,93.1,0,86.8,0L11.3,0C5.1,0,0,5.1,0,11.3L0,22.9C0,29.2,5.1,34.2,11.3,34.2L86.8,34.2z" fill="none"/><text class="st2"><tspan x="17.1" y="21.6">万有引力号</tspan></text></g><g transform="translate(1644.77,1165.71)" id="shape179"><path stroke-width="2.33333" stroke="#236ea1" d="M0,0L0,-142.6" fill="none"/><path stroke-width="1" stroke="#236ea1" d="M0,-149.3L-4.6,-141.4C-3.2,-142.1,-1.7,-142.6,0,-142.6C1.7,-142.6,3.2,-142.1,4.6,-141.4L0,-149.3" stroke-linecap="round" fill="#236ea1"/><rect width="53.1" height="15" x="-25.9" y="-82.1" fill="#ffffff"/><text class="st3"><tspan x="-26" y="-70.1">四维空间</tspan></text></g><g transform="translate(1644.77,982.18)" id="shape180"><path stroke-width="2.33333" stroke="#ee7c31" d="M0,0L0,-32L-112.9,-32L-112.9,78.4" fill="none"/><path stroke-width="1" stroke="#ee7c31" d="M-112.9,85.1L-108.3,77.1C-109.7,77.9,-111.2,78.4,-112.9,78.4C-114.6,78.4,-116.2,77.9,-117.5,77.1L-112.9,85.1" stroke-linecap="round" fill="#ee7c31"/><rect width="53.1" height="15" x="-79.3" y="-53.4" fill="#ffffff"/><text class="st3"><tspan x="-79.4" y="-41.4">威慑失败</tspan></text></g><g transform="translate(1620.23,1016.41)" id="shape181"><path stroke-width="2.33333" stroke="#236ea1" d="M0,0L-166.6,111.9" fill="none"/><path stroke-width="1" stroke="#236ea1" d="M-172.2,115.6L-163.1,115C-164.5,114.3,-165.7,113.3,-166.6,111.9C-167.6,110.5,-168.1,109,-168.2,107.4L-172.2,115.6" stroke-linecap="round" fill="#236ea1"/></g><g transform="translate(992.85,857.29)" id="shape182"><path stroke-width="2.33333" stroke="#ee7c31" d="M0,0L558.4,78.1" fill="none"/><path stroke-width="1" stroke="#ee7c31" d="M565,79L557.8,73.4C558.4,74.8,558.6,76.4,558.4,78.1C558.1,79.7,557.5,81.2,556.5,82.4L565,79" stroke-linecap="round" fill="#ee7c31"/></g><g transform="translate(1103.47,857.28)" id="shape183"><path stroke-width="2.33333" stroke="#000000" d="M0,42L94,42L94,10.5L83.5,0L10.5,0L0,10.5L0,42z" fill="none"/><text class="st3"><tspan x="15" y="25.5">执剑人交接</tspan></text></g><g transform="translate(1739.53,1086.88)" id="shape184"><path stroke-width="2.33333" d="M83.3,38.2C89.6,38.2,94.6,33.1,94.6,26.9L94.6,11.3C94.6,5.1,89.6,0,83.3,0L11.3,0C5.1,0,0,5.1,0,11.3L0,26.9C0,33.1,5.1,38.2,11.3,38.2L83.3,38.2z" stroke="#000000" fill="#c2c2c2"/><text class="st2"><tspan x="15.3" y="23.6">自然选择号</tspan></text></g><g transform="translate(1739.53,1132.3)" id="shape185"><path stroke-width="2.33333" d="M83.3,38.2C89.6,38.2,94.6,33.1,94.6,26.9L94.6,11.3C94.6,5.1,89.6,0,83.3,0L11.3,0C5.1,0,0,5.1,0,11.3L0,26.9C0,33.1,5.1,38.2,11.3,38.2L83.3,38.2z" stroke="#000000" fill="#c2c2c2"/><text class="st2"><tspan x="28.3" y="23.6">深空号</tspan></text></g><g transform="translate(1739.53,1177.71)" id="shape186"><path stroke-width="2.33333" d="M83,37C89.2,37,94.3,31.9,94.3,25.7L94.3,11.3C94.3,5.1,89.2,0,83,0L11.3,0C5.1,0,0,5.1,0,11.3L0,25.7C0,31.9,5.1,37,11.3,37L83,37z" stroke="#000000" fill="#000000"/><text class="st11"><tspan x="15.2" y="23">蓝色空间号</tspan></text></g><g transform="translate(1785.95,687.45)" id="shape187"><path stroke-width="2.33333" stroke="#ee7c31" d="M0,0L.9,392.7" fill="none"/><path stroke-width="1" stroke="#ee7c31" d="M.9,399.4L5.5,391.5C4.1,392.3,2.6,392.7,.9,392.7C-0.8,392.7,-2.4,392.3,-3.7,391.5L.9,399.4" stroke-linecap="round" fill="#ee7c31"/><rect width="79.7" height="15" x="-36" y="112.8" fill="#ffffff"/><rect width="79.7" height="15" x="-36" y="127.8" fill="#ffffff"/><text class="st3"><tspan x="-36.1" y="124.8">逃离是事实，</tspan><tspan x="-36.1" y="139.8">但我没有背叛</tspan></text></g><g transform="translate(1739.53,1221.92)" id="shape188"><path stroke-width="2.33333" d="M83.3,38.2C89.6,38.2,94.6,33.1,94.6,26.9L94.6,11.3C94.6,5.1,89.6,0,83.3,0L11.3,0C5.1,0,0,5.1,0,11.3L0,26.9C0,33.1,5.1,38.2,11.3,38.2L83.3,38.2z" stroke="#000000" fill="#c2c2c2"/><text class="st2"><tspan x="28.3" y="23.6">企业号</tspan></text></g><g transform="translate(1739.53,1267.33)" id="shape189"><path stroke-width="2.33333" d="M83.3,38.2C89.6,38.2,94.6,33.1,94.6,26.9L94.6,11.3C94.6,5.1,89.6,0,83.3,0L11.3,0C5.1,0,0,5.1,0,11.3L0,26.9C0,33.1,5.1,38.2,11.3,38.2L83.3,38.2z" stroke="#000000" fill="#c2c2c2"/><text class="st2"><tspan x="15.3" y="23.6">中级规律号</tspan></text></g><g transform="translate(1739.53,1314.3)" id="shape190"><path stroke-width="2.33333" d="M83.3,38.2C89.6,38.2,94.6,33.1,94.6,26.9L94.6,11.3C94.6,5.1,89.6,0,83.3,0L11.3,0C5.1,0,0,5.1,0,11.3L0,26.9C0,33.1,5.1,38.2,11.3,38.2L83.3,38.2z" stroke="#000000" fill="#c2c2c2"/><text class="st2"><tspan x="28.3" y="23.6">量子号</tspan></text></g><g transform="translate(1737.77,1388.79)" id="shape191"><path stroke-width="2.33333" d="M86.8,37C93.1,37,98.2,31.9,98.2,25.7L98.2,11.3C98.2,5.1,93.1,0,86.8,0L11.3,0C5.1,0,0,5.1,0,11.3L0,25.7C0,31.9,5.1,37,11.3,37L86.8,37z" stroke="#000000" fill="#000000"/><text class="st11"><tspan x="17.1" y="23">青铜时代号</tspan></text></g><g transform="translate(1739.53,1105.98)" id="shape192"><path stroke-width="2.33333" stroke="#236ea1" d="M0,0L-56.3,62.1" stroke-dasharray="11,5" fill="none"/><path stroke-width="1" stroke="#236ea1" d="M-60.8,67L-52.1,64.2C-53.6,63.9,-55.1,63.2,-56.3,62.1C-57.6,61,-58.4,59.6,-58.9,58.1L-60.8,67" stroke-linecap="round" fill="#236ea1"/></g><g transform="translate(1739.53,1151.4)" id="shape193"><path stroke-width="2.33333" stroke="#236ea1" d="M0,0L-37.2,39.9" stroke-dasharray="11,5" fill="none"/><path stroke-width="1" stroke="#236ea1" d="M-41.8,44.8L-33,42.1C-34.5,41.8,-36,41,-37.2,39.9C-38.4,38.8,-39.3,37.4,-39.7,35.9L-41.8,44.8" stroke-linecap="round" fill="#236ea1"/></g><g transform="translate(1739.53,1196.21)" id="shape194"><path stroke-width="2.33333" stroke="#236ea1" d="M0,0L-35.1,0" fill="none"/><path stroke-width="1" stroke="#236ea1" d="M-41.8,0L-33.8,4.6C-34.6,3.2,-35.1,1.7,-35.1,0C-35.1,-1.7,-34.6,-3.2,-33.8,-4.6L-41.8,0" stroke-linecap="round" fill="#236ea1"/></g><g transform="translate(1739.53,1241.02)" id="shape195"><path stroke-width="2.33333" stroke="#236ea1" d="M0,0L-37.2,-39.9" stroke-dasharray="11,5" fill="none"/><path stroke-width="1" stroke="#236ea1" d="M-41.8,-44.8L-39.7,-35.9C-39.3,-37.4,-38.4,-38.8,-37.2,-39.9C-36,-41,-34.5,-41.8,-33,-42.1L-41.8,-44.8" stroke-linecap="round" fill="#236ea1"/></g><g transform="translate(1739.53,1286.43)" id="shape196"><path stroke-width="2.33333" stroke="#236ea1" d="M0,0L-56.3,-62.1" stroke-dasharray="11,5" fill="none"/><path stroke-width="1" stroke="#236ea1" d="M-60.8,-67L-58.9,-58.1C-58.4,-59.6,-57.6,-61,-56.3,-62.1C-55.1,-63.2,-53.6,-63.9,-52.1,-64.2L-60.8,-67" stroke-linecap="round" fill="#236ea1"/></g><g transform="translate(1737.77,1407.29)" id="shape197"><path stroke-width="2.33333" stroke="#236ea1" d="M0,0L-89.9,-174.6" fill="none"/><path stroke-width="1" stroke="#236ea1" d="M-93,-180.6L-93.4,-171.4C-92.6,-172.7,-91.4,-173.9,-89.9,-174.6C-88.4,-175.4,-86.8,-175.7,-85.3,-175.6L-93,-180.6" stroke-linecap="round" fill="#236ea1"/><rect width="66.4" height="15" x="-78.9" y="-105.3" fill="#ffffff"/><rect width="66.4" height="15" x="-78.9" y="-90.3" fill="#ffffff"/><text class="st3"><tspan x="-79" y="-93.3">不要返航，</tspan><tspan x="-79" y="-78.3">这里不是家</tspan></text></g><g transform="translate(1786.85,1388.79)" id="shape198"><path stroke-width="2.33333" stroke="#236ea1" d="M0,0L-0,-29.6" fill="none"/><path stroke-width="1" stroke="#236ea1" d="M-0,-36.3L-4.6,-28.4C-3.2,-29.1,-1.7,-29.6,-0,-29.6C1.7,-29.6,3.2,-29.1,4.6,-28.4L-0,-36.3" stroke-linecap="round" fill="#236ea1"/><rect width="26.6" height="15" x="-12.9" y="-23.8" fill="#ffffff"/><text class="st3"><tspan x="-13" y="-11.8">攻击</tspan></text></g><g transform="translate(1682.85,1355.94)" id="shape199"><path stroke-width="2.33333" stroke="#000000" d="M56.7,29.4C62.9,29.4,68,24.3,68,18.1L68,11.3C68,5.1,62.9,0,56.7,0L11.3,0C5.1,0,0,5.1,0,11.3L0,18.1C0,24.3,5.1,29.4,11.3,29.4L56.7,29.4z" fill="none"/><text class="st3"><tspan x="15" y="19.2">史耐德</tspan></text></g><g transform="translate(1834.16,1295.98)" id="shape200"><path stroke-width="2.33333" stroke="#236ea1" d="M0,0L32,0L32,-99.8L6.4,-99.8" stroke-dasharray="3.8,1.2" fill="none"/><path stroke-width="1" stroke="#236ea1" d="M-0.3,-99.8L7.6,-95.2C6.8,-96.5,6.4,-98.1,6.4,-99.8C6.4,-101.4,6.8,-103,7.6,-104.4L-0.3,-99.8" stroke-linecap="round" fill="#236ea1"/></g><g transform="translate(1833.85,1205.46)" id="shape201"><path stroke-width="2.33333" stroke="#236ea1" d="M0,0L53,0L53,81L7,81" fill="none"/><path stroke-width="1" stroke="#236ea1" d="M.3,81L8.3,85.6C7.5,84.2,7,82.6,7,81C7,79.3,7.5,77.7,8.3,76.4L.3,81" stroke-linecap="round" fill="#236ea1"/><rect width="26.6" height="15" x="40.1" y="32.8" fill="#ffffff"/><text class="st3"><tspan x="40" y="44.8">攻击</tspan></text></g><g transform="translate(1834.16,1295.98)" id="shape202"><path stroke-width="2.33333" stroke="#236ea1" d="M0,0L32,0L32,-190L6.7,-190" fill="none"/><path stroke-width="1" stroke="#236ea1" d="M0,-190L7.9,-185.4C7.2,-186.8,6.7,-188.3,6.7,-190C6.7,-191.7,7.2,-193.2,7.9,-194.6L0,-190" stroke-linecap="round" fill="#236ea1"/></g><g transform="translate(1834.16,1295.98)" id="shape203"><path stroke-width="2.33333" stroke="#236ea1" d="M0,0L32,0L32,-144.6L6.7,-144.6" fill="none"/><path stroke-width="1" stroke="#236ea1" d="M0,-144.6L7.9,-140C7.2,-141.4,6.7,-142.9,6.7,-144.6C6.7,-146.3,7.2,-147.8,7.9,-149.2L0,-144.6" stroke-linecap="round" fill="#236ea1"/></g><g transform="translate(1834.16,1295.98)" id="shape204"><path stroke-width="2.33333" stroke="#236ea1" d="M0,0L32,0L32,-55L6.7,-55" fill="none"/><path stroke-width="1" stroke="#236ea1" d="M0,-55L7.9,-50.4C7.2,-51.7,6.7,-53.3,6.7,-55C6.7,-56.6,7.2,-58.2,7.9,-59.5L0,-55" stroke-linecap="round" fill="#236ea1"/><rect width="26.6" height="15" x="19.1" y="-35" fill="#ffffff"/><text class="st3"><tspan x="19" y="-23">攻击</tspan></text></g><g transform="translate(1932,811.29)" id="shape205"><path stroke-width="2.33333" d="M83.3,38.2C89.6,38.2,94.6,33.1,94.6,26.9L94.6,11.3C94.6,5.1,89.6,0,83.3,0L11.3,0C5.1,0,0,5.1,0,11.3L0,26.9C0,33.1,5.1,38.2,11.3,38.2L83.3,38.2z" stroke="#000000" fill="#c2c2c2"/><text class="st3"><tspan x="28.3" y="23.6">螳螂号</tspan></text></g><g transform="translate(1979.32,653.5)" id="shape206"><path stroke-width="2.33333" stroke="#236ea1" d="M0,0L0,151.1" fill="none"/><path stroke-width="1" stroke="#236ea1" d="M0,157.8L4.6,149.9C3.2,150.6,1.7,151.1,0,151.1C-1.7,151.1,-3.2,150.6,-4.6,149.9L0,157.8" stroke-linecap="round" fill="#236ea1"/><rect width="66.4" height="15" x="-32.4" y="71.4" fill="#ffffff"/><text class="st3"><tspan x="-32.5" y="83.4">第一个接触</tspan></text></g><g transform="translate(1936.95,880.88)" id="shape207"><path stroke-width="2.33333" stroke="#c00000" d="M73.4,40.4C79.7,40.4,84.7,35.3,84.7,29.1L84.7,11.3C84.7,5.1,79.7,0,73.4,0L11.3,0C5.1,0,0,5.1,0,11.3L0,29.1C0,35.3,5.1,40.4,11.3,40.4L73.4,40.4z" fill="none"/><text class="st2"><tspan x="29.4" y="24.7">水滴</tspan></text></g><g transform="translate(1979.32,849.5)" id="shape208"><path stroke-width="2.33333" stroke="#236ea1" d="M0,0L0,24.7" fill="none"/><path stroke-width="1" stroke="#236ea1" d="M0,31.4L4.6,23.4C3.2,24.2,1.7,24.7,0,24.7C-1.7,24.7,-3.2,24.2,-4.6,23.4L0,31.4" stroke-linecap="round" fill="#236ea1"/></g><g transform="translate(1809,874.59)" id="shape209"><path stroke-width="2.33333" stroke="#000000" d="M0,26.5C0,11.9,20.6,0,46,0C71.5,0,92.1,11.9,92.1,26.5C92.1,41.1,71.5,53,46,53C20.6,53,0,41.1,0,26.5z" fill="none"/><text class="st4"><tspan x="8" y="33.5">舰队国际</tspan></text></g><g transform="translate(1936.95,901.09)" id="shape210"><path stroke-width="2.33333" stroke="#236ea1" d="M0,0L-29.1,0" fill="none"/><path stroke-width="1" stroke="#236ea1" d="M-35.8,0L-27.9,4.6C-28.7,3.2,-29.1,1.7,-29.1,0C-29.1,-1.7,-28.7,-3.2,-27.9,-4.6L-35.8,0" stroke-linecap="round" fill="#236ea1"/><rect width="13.3" height="15" x="-24.3" y="-15" fill="#ffffff"/><rect width="13.3" height="15" x="-24.3" y="0" fill="#ffffff"/><text class="st3"><tspan x="-24.4" y="-3">秒</tspan><tspan x="-24.4" y="12">杀</tspan></text></g><g transform="translate(1833,759.29)" id="shape211"><path stroke-width="2.33333" stroke="#000000" d="M73.4,40.4C79.7,40.4,84.7,35.3,84.7,29.1L84.7,11.3C84.7,5.1,79.7,0,73.4,0L11.3,0C5.1,0,0,5.1,0,11.3L0,29.1C0,35.3,5.1,40.4,11.3,40.4L73.4,40.4z" fill="none"/><text class="st2"><tspan x="10.4" y="24.7">无工质推进</tspan></text></g><g transform="translate(1823.86,671.21)" id="shape212"><path stroke-width="2.33333" stroke="#ee7c31" d="M0,0L28.1,81.7" fill="none"/><path stroke-width="1" stroke="#ee7c31" d="M30.3,88.1L32.1,79.1C31.1,80.3,29.7,81.2,28.1,81.7C26.6,82.3,24.9,82.4,23.4,82.1L30.3,88.1" stroke-linecap="round" fill="#ee7c31"/></g><g transform="translate(1979.32,653.5)" id="shape213"><path stroke-width="2.33333" stroke="#236ea1" d="M0,0L-78.6,100.5" fill="none"/><path stroke-width="1" stroke="#236ea1" d="M-82.8,105.8L-74.3,102.4C-75.8,102.2,-77.3,101.5,-78.6,100.5C-79.9,99.5,-80.9,98.2,-81.5,96.7L-82.8,105.8" stroke-linecap="round" fill="#236ea1"/></g><g transform="translate(1854.18,799.71)" id="shape214"><path stroke-width="2.33333" stroke="#ee7c31" d="M0,0L.8,68.2" fill="none"/><path stroke-width="1" stroke="#ee7c31" d="M.9,74.9L5.4,66.9C4,67.7,2.5,68.2,.8,68.2C-0.9,68.2,-2.5,67.8,-3.8,67L.9,74.9" stroke-linecap="round" fill="#ee7c31"/></g><g transform="translate(1936.95,975.99)" id="shape215"><path stroke-width="2.33333" stroke="#000000" d="M73.4,40.4C79.7,40.4,84.7,35.3,84.7,29.1L84.7,11.3C84.7,5.1,79.7,0,73.4,0L11.3,0C5.1,0,0,5.1,0,11.3L0,29.1C0,35.3,5.1,40.4,11.3,40.4L73.4,40.4z" fill="none"/><text class="st2"><tspan x="23.4" y="24.7">太阳系</tspan></text></g><g transform="translate(1979.32,921.29)" id="shape216"><path stroke-width="2.33333" stroke="#236ea1" d="M0,0L0,48" fill="none"/><path stroke-width="1" stroke="#236ea1" d="M0,54.7L4.6,46.8C3.2,47.5,1.7,48,0,48C-1.7,48,-3.2,47.5,-4.6,46.8L0,54.7" stroke-linecap="round" fill="#236ea1"/><rect width="26.6" height="15" x="-12.9" y="12.5" fill="#ffffff"/><text class="st3"><tspan x="-13" y="24.5">封锁</tspan></text></g><g transform="translate(1930.24,1057.97)" id="shape217"><path stroke-width="2.33333" stroke="#ff0000" d="M86.8,40.4C93.1,40.4,98.2,35.3,98.2,29.1L98.2,11.3C98.2,5.1,93.1,0,86.8,0L11.3,0C5.1,0,0,5.1,0,11.3L0,29.1C0,35.3,5.1,40.4,11.3,40.4L86.8,40.4z" fill="none"/><text class="st6"><tspan x="30.1" y="24.7">二向箔</tspan></text></g><g transform="translate(1979.32,1057.97)" id="shape218"><path stroke-width="2.33333" stroke="#236ea1" d="M0,0L-0,-34.9" fill="none"/><path stroke-width="1" stroke="#236ea1" d="M-0,-41.6L-4.6,-33.6C-3.2,-34.4,-1.7,-34.9,-0,-34.9C1.7,-34.9,3.2,-34.4,4.6,-33.6L-0,-41.6" stroke-linecap="round" fill="#236ea1"/><rect width="26.6" height="15" x="-12.9" y="-27.5" fill="#ffffff"/><text class="st3"><tspan x="-13" y="-15.5">清理</tspan></text></g><g transform="translate(1806.46,1002.47)" id="shape219"><path stroke-width="2.33333" d="M83.3,38.2C89.6,38.2,94.6,33.1,94.6,26.9L94.6,11.3C94.6,5.1,89.6,0,83.3,0L11.3,0C5.1,0,0,5.1,0,11.3L0,26.9C0,33.1,5.1,38.2,11.3,38.2L83.3,38.2z" stroke="#000000" fill="#c2c2c2"/><text class="st2"><tspan x="21.3" y="23.6">东方延绪</tspan></text></g><g transform="translate(1810.5,1086.88)" id="shape220"><path stroke-width="2.33333" stroke="#236ea1" d="M0,0L38.7,-41.3" fill="none"/><path stroke-width="1" stroke="#236ea1" d="M43.3,-46.2L34.5,-43.5C36,-43.2,37.5,-42.5,38.7,-41.3C39.9,-40.2,40.7,-38.8,41.2,-37.3L43.3,-46.2" stroke-linecap="round" fill="#236ea1"/><rect width="26.6" height="15" x="8.7" y="-30.6" fill="#ffffff"/><text class="st3"><tspan x="8.6" y="-18.6">舰长</tspan></text></g><g transform="translate(1834.16,1323.84)" id="shape221"><path stroke-width="2.33333" stroke="#236ea1" d="M0,0L226.2,0L226.2,-493.4L199.2,-493.4" fill="none"/><path stroke-width="1" stroke="#236ea1" d="M192.5,-493.4L200.4,-488.9C199.6,-490.2,199.2,-491.8,199.2,-493.4C199.2,-495.1,199.6,-496.7,200.4,-498L192.5,-493.4" stroke-linecap="round" fill="#236ea1"/><rect width="26.6" height="15" x="213.3" y="-158" fill="#ffffff"/><text class="st3"><tspan x="213.2" y="-146">西子</tspan></text></g><g transform="translate(2021.68,633.29)" id="shape222"><path stroke-width="2.33333" stroke="#236ea1" d="M0,0L57.3,0L57.3,774L-179,774" fill="none"/><path stroke-width="1" stroke="#236ea1" d="M-185.8,774L-177.8,778.6C-178.6,777.2,-179,775.7,-179,774C-179,772.3,-178.6,770.8,-177.8,769.4L-185.8,774" stroke-linecap="round" fill="#236ea1"/></g><g transform="translate(2021.68,633.29)" id="shape223"><path stroke-width="2.33333" stroke="#236ea1" d="M0,0L57.3,0L57.3,709.7L-180.8,709.7" fill="none"/><path stroke-width="1" stroke="#236ea1" d="M-187.5,709.7L-179.6,714.2C-180.4,712.9,-180.8,711.3,-180.8,709.7C-180.8,708,-180.4,706.4,-179.6,705.1L-187.5,709.7" stroke-linecap="round" fill="#236ea1"/><rect width="26.6" height="15" x="44.4" y="433.6" fill="#ffffff"/><rect width="26.6" height="15" x="44.4" y="448.6" fill="#ffffff"/><text class="st3"><tspan x="44.3" y="445.6">提前</tspan><tspan x="44.3" y="460.6">深海</tspan></text></g><g transform="translate(1574.03,761)" id="shape224"><path stroke-width="2.33333" stroke="#000000" d="M20,38.7L88.4,38.7L108.4,19.4L88.4,0L20,0L0,19.4L20,38.7z" fill="none"/><text class="st2"><tspan x="15.2" y="23.9">增援未来计划</tspan></text></g><g transform="translate(1709.95,365)" id="shape225"><path stroke-width="2.33333" stroke="#000000" d="M20,38.7L88.4,38.7L108.4,19.4L88.4,0L20,0L0,19.4L20,38.7z" fill="none"/><text class="st2"><tspan x="28.2" y="23.9">破壁计划</tspan></text></g><g transform="translate(1576.81,524.59)" id="shape226"><path stroke-width="2.33333" stroke="#000000" d="M20,38.7L88.4,38.7L108.4,19.4L88.4,0L20,0L0,19.4L20,38.7z" fill="none"/><text class="st2"><tspan x="28.2" y="23.9">古筝行动</tspan></text></g><g transform="translate(582,614.44)" id="shape227"><path stroke-width="2.33333" stroke="#000000" d="M20,38.7L97,38.7L117,19.4L97,0L20,0L0,19.4L20,38.7z" fill="none"/><text class="st2"><tspan x="33" y="23.9">面壁计划</tspan></text></g><g transform="translate(887.35,734)" id="shape228"><path stroke-width="2.33333" stroke="#000000" d="M20,38.7L97,38.7L117,19.4L97,0L20,0L0,19.4L20,38.7z" fill="none"/><text class="st2"><tspan x="33" y="23.9">雪地工程</tspan></text></g><g transform="translate(385.42,979.94)" id="shape229"><path stroke-width="2.33333" stroke="#000000" d="M20,38.7L97,38.7L117,19.4L97,0L20,0L0,19.4L20,38.7z" fill="none"/><text class="st2"><tspan x="20" y="23.9">人类日记计划</tspan></text></g><g transform="translate(681.76,1109.94)" id="shape230"><path stroke-width="2.33333" stroke="#000000" d="M20,38.7L97,38.7L117,19.4L97,0L20,0L0,19.4L20,38.7z" fill="none"/><text class="st3"><tspan x="20" y="23.9">光速飞船计划</tspan></text></g><g transform="translate(1104.53,1369.38)" id="shape231"><path stroke-width="2.33333" stroke="#236ea1" d="M0,0L0,6.6L-80.5,6.6L-80.5,-152.8L-153.9,-152.8" fill="none"/><path stroke-width="1" stroke="#236ea1" d="M-160.6,-152.8L-152.7,-148.2C-153.4,-149.5,-153.9,-151.1,-153.9,-152.8C-153.9,-154.4,-153.4,-156,-152.7,-157.4L-160.6,-152.8" stroke-linecap="round" fill="#236ea1"/><rect width="39.9" height="15" x="-144.9" y="-167.4" fill="#ffffff"/><rect width="26.6" height="15" x="-137.8" y="-152.4" fill="#ffffff"/><text class="st3"><tspan x="-145" y="-155.4">幸福的</tspan><tspan x="-138" y="-140.4">一生</tspan></text></g><g transform="translate(74,1031.88)"><g transform="translate(8.24,317)" id="shape232"><text class="st2"><tspan x="8.3" y="26.5">所有线条：粗细程度区分主次，颜色区分类别</tspan><tspan x="8.3" y="56.5">实线：表示强关联      虚线：表示弱关联</tspan><tspan x="8.3" y="86.5">箭头：主动或推进      框交于线：表示条件</tspan><tspan x="8.3" y="116.5" class="st12">紫色文字：主要关联信息</tspan></text></g><g><g transform="translate(14.03,55.49)" id="shape233"><path stroke-width="2.33333" stroke="#000000" d="M0,46.7C0,20.9,20.9,0,46.7,0C72.4,0,93.3,20.9,93.3,46.7C93.3,72.4,72.4,93.3,46.7,93.3C20.9,93.3,0,72.4,0,46.7z" fill="none"/><text class="st13"><tspan x="9.2" y="54.2">关键人物</tspan></text></g><g transform="translate(122.35,55.49)" id="shape234"><path stroke-width="2.33333" stroke="#000000" d="M0,46.7C0,20.9,20.9,0,46.7,0C72.4,0,93.3,20.9,93.3,46.7C93.3,72.4,72.4,93.3,46.7,93.3C20.9,93.3,0,72.4,0,46.7z" stroke-dasharray="6,4" fill="none"/><text class="st13"><tspan x="18.2" y="54.2">面壁者</tspan></text></g><g transform="translate(230.68,76.31)" id="shape235"><path stroke-width="2.33333" stroke="#000000" d="M0,30.5C0,13.7,20.9,0,46.7,0C72.4,0,93.3,13.7,93.3,30.5C93.3,47.3,72.4,61,46.7,61C20.9,61,0,47.3,0,30.5z" fill="none"/><text class="st4"><tspan x="9.2" y="37.5">组织机构</tspan></text></g><g transform="translate(15.58,176.09)" id="shape236"><path stroke-width="2.33333" stroke="#000000" d="M0,42L84,42L84,10.5L73.5,0L10.5,0L0,10.5L0,42z" fill="none"/><text class="st2"><tspan x="16.5" y="25.5">关键事件</tspan></text></g><g transform="translate(123.9,177.73)" id="shape237"><path stroke-width="2.33333" stroke="#000000" d="M20,38.7L76.6,38.7L96.6,19.4L76.6,0L20,0L0,19.4L20,38.7z" fill="none"/><text class="st2"><tspan x="22.3" y="23.9">各类计划</tspan></text></g><g transform="translate(235.55,176.88)" id="shape238"><path stroke-width="2.33333" stroke="#c00000" d="M82.7,40.4C88.9,40.4,94,35.3,94,29.1L94,11.3C94,5.1,88.9,0,82.7,0L11.3,0C5.1,0,0,5.1,0,11.3L0,29.1C0,35.3,5.1,40.4,11.3,40.4L82.7,40.4z" fill="none"/><text class="st2"><tspan x="10" y="24.7">made in三体</tspan></text></g><g transform="translate(235.55,244.07)" id="shape239"><path stroke-width="2.33333" stroke="#c00000" d="M82.7,68C88.9,68,94,62.9,94,56.7L94,11.3C94,5.1,88.9,0,82.7,0L11.3,0C5.1,0,0,5.1,0,11.3L0,56.7C0,62.9,5.1,68,11.3,68L82.7,68z" fill="none"/><text class="st6"><tspan x="8" y="31">地球及三体以</tspan><tspan x="21" y="46">外的事物</tspan></text></g><g transform="translate(122.62,244.07)" id="shape240"><path stroke-width="2.33333" d="M79.4,65C85.7,65,90.8,59.9,90.8,53.7L90.8,11.3C90.8,5.1,85.7,0,79.4,0L11.3,0C5.1,0,0,5.1,0,11.3L0,53.7C0,59.9,5.1,65,11.3,65L79.4,65z" stroke="#000000" fill="#c2c2c2"/><text class="st2"><tspan x="13.4" y="29.5">二维打击前</tspan><tspan x="13.4" y="44.5">非正常消亡</tspan></text></g><g transform="translate(8.48,246.08)" id="shape241"><path stroke-width="2.33333" d="M86.8,61C93.1,61,98.2,55.9,98.2,49.7L98.2,11.3C98.2,5.1,93.1,0,86.8,0L11.3,0C5.1,0,0,5.1,0,11.3L0,49.7C0,55.9,5.1,61,11.3,61L86.8,61z" stroke="#000000" fill="#000000"/><text class="st11"><tspan x="10.1" y="35">黑暗森林状态</tspan></text></g><g id="shape242"><path stroke="#3498db" d="M336,451L336,0L0,0L0,451L336,451z" fill="none"/><text class="st2"><tspan x="116" y="16">各类标志含义示例</tspan></text></g></g></g></g></svg>