<svg width="2255" xmlns:xlink="http://www.w3.org/1999/xlink" xmlns:ev="http://www.w3.org/2001/xml-events" viewBox="0 0 2255 804" height="804" xmlns="http://www.w3.org/2000/svg"><style type="text/css"><![CDATA[
.st5 {fill:#00b050;font-family:宋体;font-size:10pt;font-weight:bold}
.st2 {fill:#1bbc9d;font-family:宋体;font-size:10pt;font-weight:bold}
.st3 {fill:#ff0000;font-family:宋体;font-size:10pt;font-weight:bold}
.st1 {fill:#ff0000;font-family:宋体;font-size:11pt;font-weight:bold}
.st6 {fill:#ffffff;font-family:Arial;font-size:10pt}
.st4 {fill:#ffffff;font-family:宋体;font-size:12pt;font-weight:bold}
.st7 {font-size:11pt;font-weight:bold}
]]></style><defs/><g id="page1" transform="translate(5,5)"><rect width="2245" y="0" height="794" stroke="#808080" fill="#f8f9fd" x="0"/><g id="shape1" transform="translate(421.81,146)"><path stroke-width="2" stroke="#ff0000" d="M0,0L-65.2,0L-65.2,67.4" fill="none"/><path stroke-linecap="round" stroke-width="1" stroke="#ff0000" d="M-65.2,73.6L-61,66.3C-62.2,67,-63.7,67.4,-65.2,67.4C-66.8,67.4,-68.2,67,-69.4,66.3L-65.2,73.6" fill="#ff0000"/><rect width="49.1" y="-4.3" height="17" fill="#ffffff" x="-89.1"/><text class="st1"><tspan y="9.7" x="-89.2">不可以</tspan></text></g><g id="shape2" transform="translate(254.21,280.6)"><path stroke-width="2" stroke="#ff0000" d="M0,0L-74.2,0L-74.2,50.5" fill="none"/><path stroke-linecap="round" stroke-width="1" stroke="#ff0000" d="M-74.2,56.7L-70,49.3C-71.2,50,-72.7,50.5,-74.2,50.5C-75.8,50.5,-77.2,50,-78.5,49.3L-74.2,56.7" fill="#ff0000"/><rect width="32.7" y="-8.7" height="17" fill="#ffffff" x="-69.5"/><text class="st1"><tspan y="5.3" x="-69.6">不是</tspan></text></g><g id="shape3" transform="translate(626.6,146)"><path stroke-width="2" stroke="#00b050" d="M0,0L332.6,0L332.6,80.2" fill="none"/><path stroke-linecap="round" stroke-width="1" stroke="#00b050" d="M332.6,86.4L336.8,79.1C335.6,79.8,334.1,80.2,332.6,80.2C331,80.2,329.6,79.8,328.3,79.1L332.6,86.4" fill="#00b050"/><rect width="28.6" y="-7.5" height="15" fill="#ffffff" x="195.6"/><text class="st2"><tspan y="4.5" x="195.5">可以</tspan></text></g><g id="shape4" transform="translate(856.78,293.43)"><path stroke-width="2" stroke="#ff0000" d="M0,0L-28.2,0L-28.2,51.8" fill="none"/><path stroke-linecap="round" stroke-width="1" stroke="#ff0000" d="M-28.2,58L-23.9,50.7C-25.2,51.4,-26.6,51.8,-28.2,51.8C-29.7,51.8,-31.2,51.4,-32.4,50.7L-28.2,58" fill="#ff0000"/><rect width="28.6" y="7.4" height="15" fill="#ffffff" x="-42.1"/><text class="st3"><tspan y="19.4" x="-42.2">不是</tspan></text></g><g id="shape5" transform="translate(1085,498.55)"><path d="M0,52L139,52L139,0L20,0L0,20L0,52z" stroke="#3498db" fill="#3498db"/><text class="st4"><tspan y="32" x="13">Apache 许可证</tspan></text></g><g id="shape6" transform="translate(221,498.55)"><path d="M0,52L139,52L139,0L20,0L0,20L0,52z" stroke="#3498db" fill="#3498db"/><text class="st4"><tspan y="32" x="8">Mozilla 许可证</tspan></text></g><g id="shape7" transform="translate(5,498.55)"><path d="M0,52L139,52L139,0L20,0L0,20L0,52z" stroke="#3498db" fill="#3498db"/><text class="st4"><tspan y="32" x="22">LGPL 许可证</tspan></text></g><g id="shape8" transform="translate(437,498.55)"><path d="M0,52L139,52L139,0L20,0L0,20L0,52z" stroke="#3498db" fill="#3498db"/><text class="st4"><tspan y="32" x="26">GPL 许可证</tspan></text></g><g id="shape9" transform="translate(653,498.55)"><path d="M0,52L139,52L139,0L20,0L0,20L0,52z" stroke="#3498db" fill="#3498db"/><text class="st4"><tspan y="32" x="26">BSD 许可证</tspan></text></g><g id="shape10" transform="translate(869,498.55)"><path d="M0,52L139,52L139,0L20,0L0,20L0,52z" stroke="#3498db" fill="#3498db"/><text class="st4"><tspan y="32" x="26">MIT 许可证</tspan></text></g><g id="shape11" transform="translate(77.61,398.28)"><path stroke-width="2" stroke="#ff0000" d="M0,0L-3.1,0L-3.1,94.1" fill="none"/><path stroke-linecap="round" stroke-width="1" stroke="#ff0000" d="M-3.1,100.3L1.1,92.9C-0.1,93.6,-1.6,94.1,-3.1,94.1C-4.7,94.1,-6.1,93.6,-7.3,92.9L-3.1,100.3" fill="#ff0000"/><rect width="42.9" y="41.1" height="15" fill="#ffffff" x="-24"/><text class="st3"><tspan y="53.1" x="-24.1">不需要</tspan></text></g><g id="shape12" transform="translate(282.39,398.28)"><path stroke-width="2" stroke="#1bbc9d" d="M0,0L8.1,0L8.1,94.1" fill="none"/><path stroke-linecap="round" stroke-width="1" stroke="#1bbc9d" d="M8.1,100.3L12.3,92.9C11.1,93.6,9.7,94.1,8.1,94.1C6.6,94.1,5.1,93.6,3.9,92.9L8.1,100.3" fill="#1bbc9d"/><rect width="28.6" y="38.6" height="15" fill="#ffffff" x="-5.8"/><text class="st2"><tspan y="50.6" x="-5.9">需要</tspan></text></g><g id="shape13" transform="translate(459,280.6)"><path stroke-width="2" stroke="#1bbc9d" d="M0,0L47.5,0L47.5,211.7" fill="none"/><path stroke-linecap="round" stroke-width="1" stroke="#1bbc9d" d="M47.5,217.9L51.7,210.6C50.5,211.3,49,211.7,47.5,211.7C46,211.7,44.5,211.3,43.3,210.6L47.5,217.9" fill="#1bbc9d"/><rect width="28.6" y="77.7" height="15" fill="#ffffff" x="33.6"/><text class="st5"><tspan y="89.7" x="33.5">是的</tspan></text></g><g id="shape14" transform="translate(726.21,412.43)"><path stroke-width="2" stroke="#ff0000" d="M0,0L-3.7,0L-3.7,79.9" fill="none"/><path stroke-linecap="round" stroke-width="1" stroke="#ff0000" d="M-3.7,86.1L.5,78.8C-0.7,79.5,-2.2,79.9,-3.7,79.9C-5.3,79.9,-6.7,79.5,-8,78.8L-3.7,86.1" fill="#ff0000"/><rect width="42.9" y="33.7" height="15" fill="#ffffff" x="-24.6"/><text class="st3"><tspan y="45.7" x="-24.7">不可以</tspan></text></g><g id="shape15" transform="translate(931,412.43)"><path stroke-width="2" stroke="#1bbc9d" d="M0,0L7.5,0L7.5,79.9" fill="none"/><path stroke-linecap="round" stroke-width="1" stroke="#1bbc9d" d="M7.5,86.1L11.7,78.8C10.5,79.5,9,79.9,7.5,79.9C6,79.9,4.5,79.5,3.3,78.8L7.5,86.1" fill="#1bbc9d"/><rect width="28.6" y="31.8" height="15" fill="#ffffff" x="-6.4"/><text class="st2"><tspan y="43.8" x="-6.5">可以</tspan></text></g><g id="shape16" transform="translate(1061.57,293.43)"><path stroke-width="2" stroke="#1bbc9d" d="M0,0L92.9,0L92.9,198.9" fill="none"/><path stroke-linecap="round" stroke-width="1" stroke="#1bbc9d" d="M92.9,205.1L97.2,197.8C95.9,198.5,94.5,198.9,92.9,198.9C91.4,198.9,89.9,198.5,88.7,197.8L92.9,205.1" fill="#1bbc9d"/><rect width="28.6" y="48.6" height="15" fill="#ffffff" x="79"/><text class="st2"><tspan y="60.6" x="78.9">是的</tspan></text></g><g transform="translate(856.78,232.43)"><path id="shape17" d="M102.4,122L204.8,61L102.4,0L0,61L102.4,122z" stroke="#fdb314" fill="#fdb314"/><text class="st6"><tspan y="46" class="st7" x="46.4">每一个修改过的</tspan><tspan y="66" class="st7" x="30.4">文件，是否都必须要</tspan><tspan y="86" class="st7" x="46.4">放置版权说明？</tspan></text></g><g transform="translate(421.81,85)"><path id="shape18" d="M102.4,122L204.8,61L102.4,0L0,61L102.4,122z" stroke="#fdb314" fill="#fdb314"/><text class="st6"><tspan y="56" class="st7" x="38.4">其他人修改代码后</tspan><tspan y="76" class="st7" x="46.4">是否可以闭源？</tspan></text></g><g transform="translate(254.21,219.6)"><path id="shape19" d="M102.4,122L204.8,61L102.4,0L0,61L102.4,122z" stroke="#fdb314" fill="#fdb314"/><text class="st6"><tspan y="56" class="st7" x="38.4">新增代码是否必须</tspan><tspan y="76" class="st7" x="22.4">采用同样的许可协议？</tspan></text></g><g transform="translate(77.61,337.28)"><path id="shape20" d="M102.4,122L204.8,61L102.4,0L0,61L102.4,122z" stroke="#fdb314" fill="#fdb314"/><text class="st6"><tspan y="56" class="st7" x="30.4">是否需要对修改之处</tspan><tspan y="76" class="st7" x="46.4">提供说明文档？</tspan></text></g><g transform="translate(726.21,351.43)"><path id="shape21" d="M102.4,122L204.8,61L102.4,0L0,61L102.4,122z" stroke="#fdb314" fill="#fdb314"/><text class="st6"><tspan y="56" class="st7" x="38.4">衍生软件是否可以</tspan><tspan y="76" class="st7" x="22.4">用原软件名进行营销？</tspan></text></g></g></svg>